<svg width="195" height="195" viewBox="0 0 195 195" fill="none" xmlns="http://www.w3.org/2000/svg">
<g clip-path="url(#clip0_0_250)">
<g opacity="0.47">
<path fill-rule="evenodd" clip-rule="evenodd" d="M97.4287 194.863C151.092 194.863 194.861 151.092 194.861 97.4326C194.861 43.7675 151.092 0 97.4287 0C43.7675 0 0 43.7675 0 97.4326C0 151.092 43.7675 194.863 97.4287 194.863Z" fill="url(#paint0_radial_0_250)"/>
</g>
<path fill-rule="evenodd" clip-rule="evenodd" d="M96.8272 3.18445C135.506 3.18445 168.654 26.9042 182.611 60.6307C172.646 59.2108 162.466 58.4608 152.109 58.4608C97.709 58.4608 47.9278 78.576 10.127 112.057C8.08787 113.861 5.28417 112.025 5.00097 110.125C4.32917 105.614 3.98047 100.996 3.98047 96.2977C3.98047 44.87 45.5489 3.18445 96.8272 3.18445Z" fill="url(#paint1_linear_0_250)" fill-opacity="0.1"/>
<path fill-rule="evenodd" clip-rule="evenodd" d="M91.0854 12.3867C98.1499 21.9697 87.7084 41.6269 67.7709 56.3076C47.8413 70.9912 25.9594 75.1015 18.8959 65.5068C11.8334 55.9111 22.2709 36.2392 42.2114 21.5849C62.1372 6.90039 84.0336 2.79389 91.0854 12.3867Z" fill="url(#paint2_radial_0_250)" style="mix-blend-mode:overlay"/>
</g>
<defs>
<radialGradient id="paint0_radial_0_250" cx="0" cy="0" r="1" gradientUnits="userSpaceOnUse" gradientTransform="translate(136.43 179.926) scale(684.243 684.243)">
<stop stop-color="#CBCBCB"/>
<stop offset="0.222237" stop-color="#121212"/>
<stop offset="0.229597" stop-color="#161616"/>
<stop offset="0.352509" stop-color="#535353"/>
<stop offset="0.474578" stop-color="#878787"/>
<stop offset="0.592922" stop-color="#B2B2B2"/>
<stop offset="0.706824" stop-color="#D4D4D4"/>
<stop offset="0.815064" stop-color="#ECECEC"/>
<stop offset="0.915365" stop-color="#FAFAFA"/>
<stop offset="1" stop-color="white"/>
</radialGradient>
<linearGradient id="paint1_linear_0_250" x1="183.009" y1="52.5947" x2="6.66714" y2="59.8346" gradientUnits="userSpaceOnUse">
<stop stop-color="#8F809E"/>
<stop offset="0.14332" stop-color="#978AA3"/>
<stop offset="0.383207" stop-color="#AEA3AF"/>
<stop offset="0.690144" stop-color="#D3CEC3"/>
<stop offset="1" stop-color="#FFFFDB"/>
</linearGradient>
<radialGradient id="paint2_radial_0_250" cx="0" cy="0" r="1" gradientUnits="userSpaceOnUse" gradientTransform="translate(54.9906 38.9466) rotate(-36.354) scale(44.8101 21.5595)">
<stop stop-color="#D9D9D9"/>
<stop offset="0.101347" stop-color="#CDCDCD"/>
<stop offset="0.499786" stop-color="#A3A3A3"/>
<stop offset="0.812918" stop-color="#8A8A8A"/>
<stop offset="1" stop-color="#808080"/>
</radialGradient>
<clipPath id="clip0_0_250">
<rect width="194.861" height="194.863" fill="white"/>
</clipPath>
</defs>
</svg>
