<svg width="30" height="30" viewBox="0 0 30 30" fill="none" xmlns="http://www.w3.org/2000/svg">
<path d="M26.15 8.92L24.77 8.645C24.455 8.58 24.135 8.66 23.89 8.865C23.645 9.065 23.5 9.365 23.5 9.685V9.805C22.715 8.215 21.845 7.125 20.75 6.36C20.415 6.125 20.03 6 19.64 6H10.385C10.01 6 9.66 6.105 9.37 6.295C8.225 7.065 7.3 8.2 6.5 9.805V9.68C6.5 9.36 6.36 9.065 6.115 8.86C5.87 8.66 5.55 8.575 5.235 8.64L3.85 8.92C3.36 9.015 3 9.455 3 9.955V10.55C3 11.07 3.425 11.495 3.945 11.495H4.87C4.57 11.775 4.305 12.08 4.08 12.415C3.7 12.975 3.5 13.64 3.5 14.345V17.5V17.995V21.955C3.5 22.53 3.97 23 4.545 23H6.455C7.03 23 7.5 22.53 7.5 21.955V20.5H22.5V21.955C22.5 22.53 22.97 23 23.545 23H25.455C26.03 23 26.5 22.53 26.5 21.955V17.995V17.5V14.345C26.5 13.645 26.3 12.98 25.92 12.42C25.695 12.09 25.425 11.785 25.13 11.5H25.5H26.055C26.575 11.5 27 11.075 27 10.555V9.955C27 9.455 26.64 9.015 26.15 8.92ZM9.93 7.125C10.085 7.02 10.265 7 10.39 7H19.645C19.83 7 20.015 7.06 20.185 7.18C21.195 7.885 21.995 8.925 22.735 10.5H7.27C8.025 8.915 8.88 7.83 9.93 7.125ZM4 9.955C4 9.925 4.02 9.905 4.05 9.895L5.43 9.62C5.45 9.615 5.465 9.62 5.48 9.63C5.495 9.64 5.5 9.655 5.5 9.675V10.495H4V9.955ZM6.5 21.955C6.5 21.98 6.48 22 6.455 22H4.545C4.52 22 4.5 21.975 4.5 21.955V19.975C4.93 20.3 5.46 20.5 6.04 20.5H6.5V21.955ZM25.455 22H23.545C23.52 22 23.5 21.98 23.5 21.955V20.5H23.96C24.54 20.5 25.07 20.3 25.5 19.975V21.955C25.5 21.98 25.48 22 25.455 22ZM25.5 17.5V17.995C25.5 18.825 24.81 19.5 23.96 19.5H6.04C5.19 19.5 4.5 18.825 4.5 17.995V17.5V14.345C4.5 13.845 4.64 13.375 4.905 12.98C5.3 12.395 5.84 11.9 6.515 11.5H23.48C24.155 11.9 24.695 12.395 25.09 12.98C25.355 13.375 25.495 13.845 25.495 14.345V17.5H25.5ZM26 10.5H25.5H24.5V9.68C24.5 9.66 24.505 9.645 24.52 9.635C24.535 9.625 24.55 9.62 24.57 9.625L25.95 9.9C25.98 9.905 26 9.93 26 9.955V10.5Z" fill="#C50013"/>
<path d="M23.025 12.4653C22.72 12.2353 22.34 12.1653 21.975 12.2703L20.26 12.7603C19.515 12.9703 19 13.6603 19 14.4303V14.5153C19 15.0553 19.44 15.4953 19.98 15.4953H22.55C23.075 15.4953 23.5 15.0703 23.5 14.5453V13.4203C23.5 13.0453 23.325 12.6953 23.025 12.4653ZM22.5 14.5003L20 14.5203V14.4353C20 14.1053 20.22 13.8153 20.535 13.7253L22.25 13.2353C22.27 13.2303 22.29 13.2253 22.305 13.2253C22.36 13.2253 22.4 13.2503 22.42 13.2653C22.45 13.2853 22.5 13.3353 22.5 13.4253V14.5003Z" fill="#C50013"/>
<path d="M9.74 12.7603L8.025 12.2703C7.66 12.1653 7.28 12.2353 6.975 12.4653C6.675 12.6953 6.5 13.0403 6.5 13.4203V14.5453C6.5 15.0703 6.925 15.4953 7.45 15.4953H10.02C10.56 15.4953 11 15.0553 11 14.5153V14.4303C11 13.6603 10.48 12.9753 9.74 12.7603ZM7.5 14.5003V13.4253C7.5 13.3403 7.55 13.2903 7.58 13.2703C7.61 13.2503 7.67 13.2153 7.75 13.2403L9.465 13.7303C9.78 13.8153 10 14.1053 10 14.4353L10.02 14.5003H7.5Z" fill="#C50013"/>
<path d="M16.245 15.5H13.755C12.785 15.5 12 16.285 12 17.255V18C12 18.275 12.225 18.5 12.5 18.5H17.5C17.775 18.5 18 18.275 18 18V17.255C18 16.285 17.215 15.5 16.245 15.5ZM17 17.5H13V17.255C13 16.84 13.34 16.5 13.755 16.5H16.245C16.66 16.5 17 16.84 17 17.255V17.5Z" fill="#C50013"/>
</svg>
