<svg width="185" height="167" viewBox="0 0 185 167" fill="none" xmlns="http://www.w3.org/2000/svg">
<g clip-path="url(#clip0_0_320)">
<path d="M96.5069 2.27215L95.3607 22.3748C95.3292 22.927 94.856 23.3491 94.3037 23.3177C93.7899 23.2885 93.3887 22.8766 93.3607 22.3748L92.2145 2.27215C92.1469 1.08685 93.053 0.0711495 94.2383 0.0035495C95.4236 -0.0640505 96.4393 0.84205 96.5069 2.02735C96.5116 2.10925 96.5113 2.19215 96.5069 2.27215Z" fill="#C50013"/>
<path d="M119.039 12.0692L113.419 25.2812C113.202 25.7911 112.613 26.0286 112.103 25.8118C111.643 25.6161 111.405 25.1177 111.522 24.6478L114.967 10.7097C115.253 9.55529 116.42 8.85079 117.574 9.13619C118.729 9.42159 119.433 10.5887 119.148 11.7432C119.121 11.8524 119.081 11.9686 119.039 12.0692Z" fill="#C50013"/>
<path d="M145.137 17.2987L130.636 34.6829C130.281 35.1075 129.65 35.1647 129.225 34.8104C128.828 34.4791 128.755 33.9015 129.037 33.4812L141.706 14.7196C142.37 13.736 143.706 13.477 144.689 14.1412C145.673 14.8054 145.932 16.1412 145.268 17.1247C145.227 17.1848 145.182 17.2441 145.137 17.2987Z" fill="#C50013"/>
<path d="M156.421 41.8704L143.99 49.0544C143.51 49.3316 142.896 49.1675 142.619 48.6878C142.369 48.2552 142.478 47.7137 142.854 47.4081L153.983 38.3372C154.905 37.586 156.261 37.7242 157.013 38.6459C157.764 39.5677 157.626 40.9239 156.704 41.6752C156.617 41.7463 156.515 41.8152 156.421 41.8704Z" fill="#C50013"/>
<path d="M172.755 62.134L152.106 66.9152C151.567 67.04 151.029 66.7043 150.905 66.1655C150.788 65.6639 151.076 65.1616 151.55 64.994L171.562 58.0107C172.683 57.6196 173.909 58.2111 174.3 59.3319C174.691 60.4527 174.099 61.6783 172.979 62.0694C172.905 62.095 172.829 62.1168 172.755 62.134Z" fill="#C50013"/>
<path d="M181.818 85.9369L155.412 84.2093C154.861 84.1732 154.443 83.6967 154.479 83.1451C154.513 82.6241 154.944 82.2223 155.456 82.2098L181.912 81.6455C183.099 81.6202 184.081 82.5612 184.106 83.7474C184.131 84.9336 183.19 85.9157 182.004 85.941C181.943 85.9424 181.878 85.9406 181.818 85.9369Z" fill="#C50013"/>
<path d="M73.1501 10.71L76.596 24.6481C76.729 25.186 76.4008 25.7298 75.8629 25.8627C75.3779 25.9826 74.8881 25.7272 74.699 25.2815L69.0786 12.0695C68.6131 10.9753 69.1228 9.7109 70.2171 9.2454C71.3113 8.78 72.5757 9.2896 73.0412 10.3838C73.0852 10.4874 73.1232 10.6042 73.1501 10.71Z" fill="#C50013"/>
<path d="M40.714 7.14623L59.0758 33.4813C59.3919 33.9347 59.2806 34.5583 58.8273 34.8744C58.3946 35.176 57.8046 35.0857 57.4771 34.683L37.2828 9.72533C36.5367 8.80333 36.6794 7.45103 37.6014 6.70493C38.5235 5.95903 39.8758 6.10153 40.6218 7.02373C40.6531 7.06223 40.6858 7.10623 40.714 7.14623Z" fill="#C50013"/>
<path d="M34.131 38.3368L45.2604 47.4077C45.6899 47.7578 45.7543 48.3898 45.4043 48.8192C45.0886 49.2066 44.5436 49.2966 44.1247 49.054L31.6934 41.87C30.6638 41.275 30.3115 39.958 30.9065 38.9285C31.5015 37.8989 32.8185 37.5466 33.848 38.1416C33.9454 38.1979 34.046 38.2686 34.131 38.3368Z" fill="#C50013"/>
<path d="M14.4485 57.4009L36.5686 64.9941C37.0916 65.1736 37.37 65.7432 37.1905 66.2662C37.0222 66.7564 36.5068 67.0306 36.0128 66.9153L13.2555 61.5242C12.1007 61.2507 11.3863 60.0927 11.6599 58.9379C11.9334 57.7831 13.0913 57.0688 14.2461 57.3423C14.3142 57.3584 14.3836 57.3788 14.4485 57.4009Z" fill="#C50013"/>
<path d="M2.18761 81.6454L32.6627 82.2097C33.2153 82.2199 33.655 82.6762 33.6448 83.2289C33.635 83.7549 33.2174 84.1787 32.7009 84.2093L2.26961 85.937C1.08531 86.0042 0.0708109 85.0987 0.00351108 83.9145C-0.0636889 82.7302 0.841811 81.7157 2.02611 81.6484C2.07861 81.6455 2.13581 81.6446 2.18761 81.6454Z" fill="#C50013"/>
<path d="M92.2143 164.728L93.3606 144.626C93.3921 144.074 93.8653 143.651 94.4176 143.683C94.9314 143.712 95.3325 144.124 95.3606 144.626L96.5068 164.728C96.5743 165.914 95.6683 166.93 94.4829 166.997C93.2975 167.065 92.2819 166.159 92.2143 164.973C92.2096 164.891 92.21 164.808 92.2143 164.728Z" fill="#C50013"/>
<path d="M114.968 156.291L111.522 142.353C111.389 141.815 111.717 141.271 112.255 141.138C112.74 141.018 113.23 141.273 113.419 141.719L119.039 154.931C119.505 156.025 118.995 157.29 117.901 157.755C116.806 158.221 115.542 157.711 115.077 156.617C115.033 156.513 114.995 156.396 114.968 156.291Z" fill="#C50013"/>
<path d="M141.708 152.281L129.039 133.519C128.729 133.061 128.85 132.439 129.308 132.129C129.737 131.84 130.312 131.93 130.638 132.318L145.139 149.702C145.899 150.613 145.777 151.968 144.865 152.729C143.954 153.489 142.599 153.366 141.838 152.455C141.792 152.399 141.748 152.34 141.708 152.281Z" fill="#C50013"/>
<path d="M153.987 128.664L142.858 119.593C142.428 119.243 142.364 118.611 142.714 118.181C143.03 117.794 143.575 117.704 143.993 117.946L156.425 125.131C157.454 125.726 157.807 127.042 157.212 128.072C156.617 129.102 155.3 129.454 154.27 128.859C154.173 128.803 154.072 128.732 153.987 128.664Z" fill="#C50013"/>
<path d="M171.563 108.99L151.551 102.007C151.028 101.825 150.753 101.253 150.935 100.731C151.105 100.245 151.616 99.9738 152.107 100.086L172.756 104.867C173.912 105.134 174.633 106.289 174.365 107.445C174.097 108.602 172.943 109.322 171.786 109.055C171.71 109.037 171.635 109.015 171.563 108.99Z" fill="#C50013"/>
<path d="M69.0784 154.932L74.6988 141.72C74.9157 141.21 75.5048 140.972 76.0147 141.189C76.4744 141.385 76.7125 141.883 76.5958 142.353L73.1499 156.291C72.8645 157.446 71.6973 158.15 70.543 157.865C69.3886 157.579 68.6842 156.412 68.9696 155.258C68.9966 155.148 69.0364 155.032 69.0784 154.932Z" fill="#C50013"/>
<path d="M44.9996 147.014L57.4808 132.318C57.8389 131.896 58.4711 131.845 58.8928 132.203C59.2838 132.535 59.3564 133.103 59.0795 133.52L48.4308 149.594C47.775 150.583 46.4409 150.854 45.451 150.199C44.4611 149.543 44.1902 148.209 44.846 147.219C44.8914 147.15 44.9481 147.076 44.9996 147.014Z" fill="#C50013"/>
<path d="M31.693 125.131L44.1243 117.947C44.604 117.67 45.2176 117.834 45.4948 118.313C45.7448 118.746 45.6356 119.288 45.26 119.593L34.1306 128.664C33.2089 129.415 31.8526 129.277 31.1014 128.355C30.3501 127.434 30.4883 126.077 31.41 125.326C31.4972 125.255 31.5989 125.186 31.693 125.131Z" fill="#C50013"/>
<path d="M13.2557 105.477L36.013 100.086C36.5509 99.9583 37.0905 100.291 37.218 100.829C37.3375 101.334 37.048 101.841 36.5688 102.007L14.4487 109.6C13.3262 109.985 12.1039 109.388 11.7186 108.265C11.3333 107.143 11.9309 105.921 13.0533 105.535C13.1195 105.513 13.189 105.493 13.2557 105.477Z" fill="#C50013"/>
<path d="M102.551 28.2826L99.102 47.5821C99.0504 47.8713 98.7741 48.0637 98.485 48.0121C98.2074 47.9625 98.019 47.7041 98.0503 47.4277L100.294 27.9512C100.366 27.3251 100.932 26.8758 101.558 26.948C102.184 27.0201 102.634 27.5863 102.561 28.2124C102.559 28.235 102.555 28.2606 102.551 28.2826Z" fill="#C50013"/>
<path d="M111.761 48.0197L107.785 54.5338C107.632 54.7852 107.304 54.8646 107.052 54.7112C106.826 54.5728 106.739 54.2923 106.837 54.0542L109.725 46.9904C109.964 46.4054 110.632 46.125 111.217 46.3642C111.802 46.6035 112.083 47.2716 111.843 47.8567C111.821 47.912 111.791 47.9701 111.761 48.0197Z" fill="#C50013"/>
<path d="M128.862 49.0414L119.286 57.6659C119.068 57.8626 118.731 57.845 118.534 57.6266C118.35 57.4214 118.356 57.1103 118.538 56.9106L127.257 47.4202C127.684 46.9557 128.406 46.9251 128.87 47.3518C129.335 47.7785 129.366 48.501 128.939 48.9655C128.915 48.9917 128.888 49.0179 128.862 49.0414Z" fill="#C50013"/>
<path d="M140.235 61.0955L122.026 69.3961C121.758 69.5179 121.443 69.4 121.321 69.1328C121.204 68.8759 121.31 68.5738 121.556 68.4427L139.226 59.0493C139.782 58.7534 140.473 58.9647 140.769 59.5213C141.065 60.0778 140.854 60.7689 140.297 61.0648C140.277 61.0751 140.255 61.0864 140.235 61.0955Z" fill="#C50013"/>
<path d="M129.992 79.3353L124.911 79.4151C124.615 79.4197 124.372 79.1837 124.367 78.8881C124.363 78.6365 124.534 78.4227 124.767 78.3618L129.683 77.0748C130.297 76.9141 130.925 77.2815 131.086 77.8954C131.246 78.5093 130.879 79.1372 130.265 79.298C130.176 79.3213 130.08 79.3334 129.992 79.3353Z" fill="#C50013"/>
<path d="M139.072 91.7126L125.319 88.7653C125.032 88.7038 124.849 88.421 124.91 88.1338C124.969 87.8623 125.226 87.6843 125.497 87.7173L139.453 89.4631C140.079 89.5414 140.523 90.112 140.444 90.7378C140.366 91.3636 139.795 91.8073 139.17 91.7291C139.137 91.7251 139.103 91.7192 139.072 91.7126Z" fill="#C50013"/>
<path d="M87.7291 43.7614L88.4651 51.3573C88.4935 51.6504 88.2789 51.911 87.9858 51.9395C87.7215 51.9651 87.4836 51.793 87.4186 51.544L85.483 44.162C85.3227 43.5507 85.6883 42.9251 86.2997 42.7648C86.9111 42.6045 87.5367 42.9701 87.697 43.5816C87.7121 43.6393 87.7231 43.7038 87.7291 43.7614Z" fill="#C50013"/>
<path d="M72.1387 41.5758L75.9346 50.862C76.0459 51.1342 75.9154 51.4451 75.6432 51.5563C75.3912 51.6593 75.1061 51.5551 74.9768 51.3232L70.083 42.5658C69.7751 42.0148 69.9722 41.3185 70.5232 41.0107C71.0742 40.7027 71.7705 40.8998 72.0784 41.4507C72.1002 41.4898 72.1219 41.5356 72.1387 41.5758Z" fill="#C50013"/>
<path d="M65.0746 55.278L70.2271 60.9076C70.426 61.1248 70.411 61.462 70.1938 61.6609C69.9979 61.8403 69.7043 61.8456 69.5027 61.6856L63.5199 56.948C63.0244 56.5554 62.9408 55.8357 63.3332 55.3403C63.7256 54.8447 64.4454 54.7611 64.9409 55.1536C64.9877 55.1907 65.0352 55.2355 65.0746 55.278Z" fill="#C50013"/>
<path d="M49.5397 62.0928L60.1229 67.5828C60.3838 67.7182 60.4856 68.0393 60.3503 68.3003C60.2238 68.5442 59.9325 68.6481 59.6823 68.5502L48.594 64.1691C48.0072 63.9373 47.7195 63.2737 47.9514 62.687C48.1832 62.1003 48.8467 61.8127 49.4334 62.0445C49.4696 62.0588 49.5059 62.0754 49.5397 62.0928Z" fill="#C50013"/>
<path d="M54.0201 76.7443L60.9168 78.2367C61.2047 78.2991 61.3877 78.583 61.3254 78.871C61.2697 79.1284 61.0368 79.3017 60.7825 79.2913L53.7318 79.0076C53.0999 78.982 52.6083 78.4492 52.6338 77.8174C52.6592 77.1854 53.192 76.6938 53.8239 76.7192C53.8888 76.7219 53.9585 76.7313 54.0201 76.7443Z" fill="#C50013"/>
<path d="M83.702 132.66L87.5934 118.649C87.672 118.366 87.9653 118.2 88.2483 118.279C88.5163 118.353 88.6787 118.622 88.6287 118.89L85.924 133.178C85.8067 133.797 85.2093 134.204 84.5898 134.087C83.9702 133.97 83.563 133.373 83.6803 132.753C83.6861 132.722 83.6938 132.69 83.702 132.66Z" fill="#C50013"/>
<path d="M98.4805 123.55L97.7445 115.954C97.7161 115.661 97.9306 115.4 98.2238 115.372C98.4881 115.346 98.726 115.518 98.791 115.767L100.727 123.149C100.887 123.76 100.521 124.386 99.9099 124.546C99.2985 124.707 98.6729 124.341 98.5126 123.73C98.4975 123.672 98.4865 123.607 98.4805 123.55Z" fill="#C50013"/>
<path d="M115.339 128.072L110.271 117.495C110.144 117.23 110.256 116.912 110.521 116.785C110.769 116.667 111.063 116.759 111.205 116.987L117.343 126.981C117.673 127.518 117.505 128.222 116.967 128.552C116.43 128.882 115.726 128.714 115.396 128.176C115.375 128.143 115.356 128.107 115.339 128.072Z" fill="#C50013"/>
<path d="M119.226 110.261L115.977 106.404C115.787 106.177 115.816 105.84 116.042 105.649C116.234 105.487 116.507 105.484 116.702 105.626L120.781 108.591C121.294 108.964 121.408 109.683 121.035 110.196C120.661 110.71 119.943 110.823 119.429 110.45C119.354 110.395 119.284 110.329 119.226 110.261Z" fill="#C50013"/>
<path d="M134.894 106.993L125.426 100.609C125.182 100.445 125.118 100.114 125.282 99.8705C125.435 99.6435 125.735 99.5733 125.973 99.6977L136.067 105.036C136.625 105.331 136.838 106.022 136.543 106.58C136.248 107.138 135.556 107.351 134.999 107.056C134.963 107.037 134.927 107.015 134.894 106.993Z" fill="#C50013"/>
<path d="M74.453 119.292L78.4287 112.777C78.5821 112.526 78.9103 112.447 79.1617 112.6C79.3883 112.738 79.4751 113.019 79.3774 113.257L76.4892 120.321C76.2499 120.906 75.5818 121.186 74.9967 120.947C74.4117 120.708 74.1314 120.04 74.3706 119.455C74.3932 119.399 74.4231 119.341 74.453 119.292Z" fill="#C50013"/>
<path d="M54.014 121.573L67.5293 109.048C67.7447 108.848 68.0812 108.861 68.2809 109.077C68.4721 109.283 68.4672 109.601 68.2773 109.803L55.6193 123.194C55.1863 123.652 54.4638 123.672 54.0058 123.239C53.5477 122.806 53.5273 122.084 53.9604 121.626C53.9771 121.608 53.9965 121.589 54.014 121.573Z" fill="#C50013"/>
<path d="M60.3454 99.1301L64.1863 97.9153C64.4695 97.8257 64.7716 97.9827 64.8612 98.2657C64.9338 98.4952 64.8437 98.7375 64.6565 98.8686L61.3545 101.176C60.8321 101.542 60.1126 101.414 59.7475 100.892C59.3824 100.369 59.5099 99.6496 60.0324 99.2845C60.1294 99.2167 60.2383 99.1645 60.3454 99.1301Z" fill="#C50013"/>
<path d="M38.6488 90.3774L57.2911 88.4438C57.5833 88.4134 57.8446 88.6257 57.8749 88.9178C57.904 89.1979 57.7085 89.4499 57.4351 89.4971L38.9578 92.6379C38.3363 92.7436 37.7469 92.3254 37.6413 91.7041C37.5356 91.0826 37.9538 90.4932 38.5752 90.3876C38.5987 90.3835 38.6254 90.38 38.6488 90.3774Z" fill="#C50013"/>
</g>
<defs>
<clipPath id="clip0_0_320">
<rect width="184.107" height="167.001" fill="white"/>
</clipPath>
</defs>
</svg>
