<svg width="107" height="104" viewBox="0 0 107 104" fill="none" xmlns="http://www.w3.org/2000/svg">
<g clip-path="url(#clip0_0_692)">
<path d="M53.4993 0C53.7755 1.13547 53.92 2.27095 54.018 3.40642C54.1157 4.54183 54.1675 5.67737 54.1665 6.81278C54.17 7.94826 54.1168 9.08366 54.0201 10.2192C53.9223 11.3546 53.7771 12.4901 53.4993 13.6255C53.2215 12.4901 53.0763 11.3546 52.9785 10.2192C52.8818 9.08366 52.8287 7.94826 52.8322 6.81278C52.8311 5.67737 52.8829 4.54183 52.9805 3.40642C53.0787 2.27095 53.2232 1.13547 53.4993 0Z" fill="#36386C"/>
<path d="M66.7065 1.70419C66.8407 2.29002 66.84 2.84047 66.8082 3.38283C66.7682 3.92299 66.6776 4.44978 66.5436 4.96527C66.41 5.48082 66.2311 5.98447 66.0018 6.47502C65.7648 6.96349 65.4952 7.44335 65.09 7.88769C64.9542 7.30147 64.954 6.75068 64.9865 6.20858C65.0267 5.66849 65.1171 5.14157 65.2529 4.62655C65.3883 4.11147 65.5671 3.60775 65.7966 3.11734C66.0343 2.62906 66.3029 2.14888 66.7065 1.70419Z" fill="#36386C"/>
<path d="M79.0544 6.70557C78.7515 7.80955 78.3338 8.84881 77.8757 9.86535C77.4173 10.8816 76.9188 11.8755 76.3743 12.8433C75.8337 13.8133 75.2438 14.7556 74.6159 15.6765C73.9871 16.5968 73.317 17.4938 72.5312 18.3257C72.8327 17.2209 73.2498 16.1813 73.7082 15.1649C74.1674 14.149 74.6646 13.1546 75.2113 12.188C75.754 11.2191 76.3427 10.2762 76.9714 9.35581C77.6006 8.43569 78.27 7.53823 79.0544 6.70557Z" fill="#36386C"/>
<path d="M89.7275 14.6772C89.5578 15.2538 89.2878 15.7332 88.9948 16.1902C88.6956 16.6414 88.3588 17.0561 87.9899 17.4396C87.6211 17.8233 87.2187 18.1745 86.7789 18.4894C86.3333 18.7987 85.8635 19.0846 85.293 19.2728C85.4615 18.6952 85.7308 18.2151 86.0244 17.7585C86.3236 17.3075 86.6603 16.8927 87.0306 16.5105C87.4007 16.128 87.8029 15.7768 88.2428 15.462C88.689 15.1532 89.158 14.8666 89.7275 14.6772Z" fill="#36386C"/>
<path d="M98.042 25.0996C97.3236 25.9452 96.5293 26.6831 95.7083 27.3829C94.8869 28.0824 94.0393 28.7444 93.1612 29.363C92.2856 29.9854 91.3775 30.5614 90.4442 31.1016C89.5104 31.6411 88.5492 32.1417 87.5117 32.5336C88.2292 31.6866 89.0231 30.9482 89.8443 30.2486C90.6661 29.5499 91.513 28.8869 92.3926 28.2703C93.2695 27.6498 94.1769 27.0728 95.1106 26.5332C96.0447 25.9941 97.0055 25.4929 98.042 25.0996Z" fill="#36386C"/>
<path d="M103.45 38.8098C103.02 39.229 102.55 39.5143 102.071 39.7687C101.589 40.015 101.093 40.2111 100.584 40.3641C100.074 40.5174 99.5518 40.6259 99.0144 40.6843C98.4747 40.7352 97.9253 40.7535 97.3359 40.6375C97.7655 40.2168 98.2351 39.9306 98.7143 39.6768C99.1959 39.4306 99.6922 39.2344 100.202 39.0831C100.712 38.9315 101.234 38.823 101.772 38.7647C102.312 38.7146 102.861 38.6952 103.45 38.8098Z" fill="#36386C"/>
<path d="M106.997 51.7759C105.905 52.0897 104.808 52.2717 103.71 52.4072C102.612 52.5424 101.513 52.6316 100.411 52.6678C99.3103 52.7087 98.2072 52.6927 97.1027 52.6332C95.9981 52.5726 94.8919 52.4645 93.7812 52.2236C94.8731 51.9082 95.9695 51.7255 97.0675 51.5903C98.1655 51.4561 99.2649 51.3655 100.366 51.3317C101.468 51.2934 102.571 51.308 103.675 51.3684C104.78 51.4294 105.886 51.5367 106.997 51.7759Z" fill="#36386C"/>
<path d="M53.4993 104C53.2232 102.865 53.0787 101.729 52.9805 100.594C52.8829 99.4582 52.8311 98.3227 52.8322 97.1873C52.8287 96.0517 52.8818 94.9163 52.9785 93.7809C53.0763 92.6455 53.2215 91.5099 53.4993 90.3745C53.7771 91.5099 53.9223 92.6455 54.0201 93.7809C54.1168 94.9163 54.17 96.0517 54.1665 97.1873C54.1675 98.3227 54.1157 99.4582 54.018 100.594C53.92 101.729 53.7755 102.865 53.4993 104Z" fill="#36386C"/>
<path d="M66.7065 102.296C66.3029 101.851 66.0343 101.371 65.7966 100.883C65.5671 100.392 65.3883 99.8886 65.2529 99.3736C65.1171 98.8585 65.0267 98.3316 64.9865 97.7915C64.954 97.2494 64.9542 96.6987 65.09 96.1124C65.4952 96.5568 65.7648 97.0367 66.0018 97.5251C66.2311 98.0156 66.41 98.5193 66.5436 99.0348C66.6776 99.5503 66.7682 100.077 66.8082 100.617C66.84 101.16 66.8407 101.71 66.7065 102.296Z" fill="#36386C"/>
<path d="M79.0544 97.2949C78.27 96.4622 77.6006 95.5648 76.9714 94.6447C76.3427 93.7243 75.754 92.7814 75.2113 91.8124C74.6646 90.8459 74.1674 89.8514 73.7082 88.8355C73.2498 87.8191 72.8327 86.7795 72.5312 85.6748C73.317 86.5067 73.9871 87.4037 74.6159 88.324C75.2438 89.2448 75.8337 90.1871 76.3743 91.1571C76.9188 92.125 77.4173 93.1187 77.8757 94.1351C78.3338 95.1517 78.7515 96.1909 79.0544 97.2949Z" fill="#36386C"/>
<path d="M89.7275 89.3231C89.158 89.1338 88.689 88.8472 88.2428 88.5384C87.8029 88.2235 87.4007 87.8723 87.0306 87.4899C86.6603 87.1077 86.3236 86.6928 86.0244 86.2418C85.7308 85.7853 85.4615 85.3051 85.293 84.7275C85.8635 84.9157 86.3333 85.2016 86.7789 85.5111C87.2187 85.8259 87.6211 86.177 87.9899 86.5608C88.3588 86.9442 88.6956 87.359 88.9948 87.8101C89.2878 88.2672 89.5578 88.7465 89.7275 89.3231Z" fill="#36386C"/>
<path d="M98.042 78.9005C97.0055 78.5071 96.0447 78.006 95.1106 77.4668C94.1769 76.9273 93.2695 76.3501 92.3926 75.7298C91.513 75.1132 90.6661 74.4501 89.8443 73.7514C89.0231 73.0518 88.2292 72.3134 87.5117 71.4663C88.5492 71.8584 89.5104 72.3589 90.4442 72.8984C91.3775 73.4387 92.2856 74.0147 93.1612 74.6371C94.0393 75.2557 94.8869 75.9175 95.7083 76.6171C96.5293 77.317 97.3236 78.0548 98.042 78.9005Z" fill="#36386C"/>
<path d="M103.45 65.1905C102.861 65.3051 102.312 65.2857 101.772 65.2356C101.234 65.1773 100.712 65.0688 100.202 64.9172C99.6922 64.7659 99.1959 64.5697 98.7143 64.3236C98.2351 64.0697 97.7655 63.7836 97.3359 63.3629C97.9253 63.2468 98.4747 63.2651 99.0144 63.316C99.5518 63.3745 100.074 63.4828 100.584 63.6362C101.093 63.7893 101.589 63.9853 102.071 64.2316C102.55 64.4861 103.02 64.7713 103.45 65.1905Z" fill="#36386C"/>
<path d="M40.2912 1.70419C40.6948 2.14888 40.9635 2.62906 41.2012 3.11734C41.4305 3.60775 41.6094 4.11147 41.7448 4.62655C41.8805 5.14157 41.9711 5.66849 42.0112 6.20858C42.0436 6.75068 42.0435 7.30147 41.9077 7.88769C41.5025 7.44335 41.2329 6.96349 40.996 6.47502C40.7667 5.98447 40.5877 5.48082 40.4541 4.96527C40.3201 4.44978 40.2295 3.92299 40.1894 3.38283C40.1577 2.84047 40.1569 2.29002 40.2912 1.70419Z" fill="#36386C"/>
<path d="M27.9453 6.70517C28.7296 7.53784 29.3991 8.43529 30.0282 9.35541C30.6569 10.2758 31.2457 11.2187 31.7883 12.1876C32.335 13.1542 32.8323 14.1486 33.2915 15.1645C33.7499 16.1809 34.1669 17.2205 34.4684 18.3253C33.6827 17.4934 33.0125 16.5964 32.3837 15.6761C31.7558 14.7552 31.1659 13.8129 30.6254 12.8429C30.0808 11.8751 29.5824 10.8812 29.1239 9.86495C28.6659 8.84842 28.2482 7.80915 27.9453 6.70517Z" fill="#36386C"/>
<path d="M17.2695 14.6773C17.8389 14.8667 18.308 15.1532 18.7541 15.4621C19.194 15.7768 19.5963 16.1281 19.9664 16.5106C20.3367 16.8928 20.6734 17.3076 20.9726 17.7586C21.2661 18.2152 21.5355 18.6953 21.704 19.2729C21.1334 19.0846 20.6637 18.7988 20.2181 18.4895C19.7782 18.1746 19.3759 17.8233 19.0071 17.4397C18.6381 17.0562 18.3014 16.6415 18.0022 16.1903C17.7092 15.7333 17.4392 15.2539 17.2695 14.6773Z" fill="#36386C"/>
<path d="M8.95703 25.0995C9.99367 25.4928 10.9544 25.9939 11.8884 26.5331C12.8222 27.0726 13.7296 27.6497 14.6065 28.2702C15.4861 28.8867 16.333 29.5498 17.1547 30.2485C17.976 30.9481 18.7699 31.6865 19.4874 32.5335C18.4498 32.1416 17.4887 31.641 16.5549 31.1015C15.6216 30.5612 14.7134 29.9853 13.838 29.3629C12.9598 28.7443 12.1121 28.0823 11.2908 27.3828C10.4698 26.683 9.67555 25.9451 8.95703 25.0995Z" fill="#36386C"/>
<path d="M3.55078 38.8095C4.13977 38.6949 4.68878 38.7144 5.22872 38.7645C5.76619 38.8228 6.28865 38.9313 6.79836 39.0828C7.30813 39.2341 7.80456 39.4304 8.28604 39.6766C8.76532 39.9304 9.23492 40.2165 9.66442 40.6373C9.07503 40.7533 8.52568 40.7349 7.98601 40.6841C7.44854 40.6256 6.92602 40.5172 6.41684 40.3639C5.9076 40.2109 5.41117 40.0148 4.92969 39.7685C4.45068 39.514 3.98074 39.2288 3.55078 38.8095Z" fill="#36386C"/>
<path d="M0 51.7761C1.11058 51.5369 2.21675 51.4296 3.32138 51.3686C4.42595 51.3083 5.52899 51.2936 6.63022 51.332C7.73158 51.3657 8.83108 51.4563 9.92904 51.5905C11.0271 51.7258 12.1234 51.9084 13.2153 52.2239C12.1046 52.4648 10.9984 52.5729 9.89388 52.6334C8.78931 52.693 7.68627 52.709 6.58511 52.668C5.48381 52.6318 4.38424 52.5426 3.28628 52.4075C2.18832 52.272 1.09196 52.09 0 51.7761Z" fill="#36386C"/>
<path d="M40.2912 102.296C40.1569 101.71 40.1577 101.16 40.1894 100.617C40.2295 100.077 40.3201 99.5502 40.4541 99.0347C40.5877 98.5192 40.7667 98.0155 40.996 97.525C41.2329 97.0366 41.5025 96.5567 41.9077 96.1123C42.0435 96.6986 42.0436 97.2492 42.0112 97.7914C41.9711 98.3315 41.8805 98.8584 41.7448 99.3734C41.6094 99.8885 41.4305 100.392 41.2012 100.883C40.9635 101.371 40.6948 101.851 40.2912 102.296Z" fill="#36386C"/>
<path d="M27.9453 97.2949C28.2482 96.1909 28.6659 95.1517 29.1239 94.1351C29.5824 93.1187 30.0808 92.125 30.6254 91.1571C31.1659 90.1871 31.7558 89.2448 32.3837 88.324C33.0125 87.4037 33.6827 86.5067 34.4684 85.6748C34.1669 86.7795 33.7499 87.8191 33.2915 88.8355C32.8323 89.8514 32.335 90.8459 31.7883 91.8124C31.2457 92.7814 30.6569 93.7243 30.0282 94.6447C29.3991 95.5648 28.7296 96.4622 27.9453 97.2949Z" fill="#36386C"/>
<path d="M17.2695 89.3231C17.4392 88.7465 17.7092 88.2672 18.0022 87.8101C18.3014 87.359 18.6381 86.9442 19.0071 86.5608C19.3759 86.177 19.7782 85.8259 20.2181 85.5111C20.6637 85.2016 21.1334 84.9157 21.704 84.7275C21.5355 85.3051 21.2661 85.7853 20.9726 86.2418C20.6734 86.6928 20.3367 87.1077 19.9664 87.4899C19.5963 87.8723 19.194 88.2235 18.7541 88.5384C18.308 88.8472 17.8389 89.1338 17.2695 89.3231Z" fill="#36386C"/>
<path d="M8.95703 78.9007C9.67555 78.055 10.4698 77.3172 11.2908 76.6173C12.1121 75.9178 12.9598 75.2559 13.838 74.6373C14.7134 74.0149 15.6216 73.4389 16.5549 72.8986C17.4887 72.3592 18.4498 71.8586 19.4874 71.4666C18.7699 72.3136 17.976 73.0521 17.1547 73.7516C16.333 74.4504 15.4861 75.1134 14.6065 75.73C13.7296 76.3504 12.8222 76.9275 11.8884 77.4671C10.9544 78.0062 9.99367 78.5073 8.95703 78.9007Z" fill="#36386C"/>
<path d="M3.55078 65.1905C3.98074 64.7713 4.45068 64.4861 4.92969 64.2316C5.41117 63.9853 5.9076 63.7893 6.41684 63.6362C6.92602 63.4828 7.44854 63.3745 7.98601 63.316C8.52568 63.2651 9.07503 63.2468 9.66442 63.3629C9.23492 63.7836 8.76532 64.0697 8.28604 64.3236C7.80456 64.5697 7.30813 64.7659 6.79836 64.9172C6.28865 65.0688 5.76619 65.1773 5.22872 65.2356C4.68878 65.2857 4.13977 65.3051 3.55078 65.1905Z" fill="#36386C"/>
<path d="M58.3458 16.8047C58.4787 17.2227 58.5225 17.6283 58.5349 18.0297C58.547 18.4309 58.528 18.828 58.4733 19.22C58.4216 19.6125 58.3316 19.9996 58.2121 20.3827C58.0919 20.7657 57.9396 21.1442 57.6976 21.5105C57.5636 21.0923 57.5193 20.6865 57.5072 20.2852C57.4957 19.884 57.5138 19.487 57.5702 19.0951C57.6234 18.7028 57.7126 18.3156 57.8326 17.9325C57.9531 17.5496 58.1049 17.171 58.3458 16.8047Z" fill="#36386C"/>
<path d="M67.1282 19.1943C67.1633 19.6029 67.1153 19.9769 67.0379 20.3389C66.9603 20.7006 66.8538 21.0504 66.7139 21.3863C66.5769 21.7234 66.4041 22.0456 66.2039 22.3564C66.0029 22.6668 65.7721 22.9649 65.4576 23.2282C65.4215 22.8191 65.4691 22.4449 65.5466 22.0831C65.6248 21.7216 65.7304 21.3714 65.8719 21.0362C66.0104 20.6998 66.1824 20.3773 66.3832 20.0667C66.5843 19.7563 66.8148 19.458 67.1282 19.1943Z" fill="#36386C"/>
<path d="M75.0144 23.7344C74.9574 24.1222 74.8288 24.4555 74.6749 24.7695C74.5208 25.0833 74.3418 25.3783 74.1339 25.6512C73.9285 25.9262 73.6924 26.1776 73.4325 26.411C73.1721 26.644 72.8858 26.8573 72.5273 27.0157C72.5835 26.6273 72.7117 26.2938 72.8657 25.9798C73.0204 25.6663 73.1987 25.3708 73.4079 25.0989C73.6146 24.825 73.85 24.5729 74.1104 24.3399C74.371 24.1072 74.6569 23.8935 75.0144 23.7344Z" fill="#36386C"/>
<path d="M81.5002 30.1294C81.3308 30.5027 81.1059 30.8052 80.8615 31.0826C80.6168 31.3599 80.3529 31.6124 80.0666 31.8365C79.7822 32.063 79.474 32.2589 79.1474 32.4315C78.8203 32.6035 78.4733 32.7499 78.0703 32.8248C78.239 32.4506 78.4636 32.1478 78.7082 31.8705C78.9532 31.5938 79.2167 31.3406 79.5039 31.1178C79.7893 30.8925 80.097 30.6959 80.424 30.5238C80.7512 30.3521 81.0979 30.2053 81.5002 30.1294Z" fill="#36386C"/>
<path d="M86.1545 37.9614C85.8998 38.306 85.6037 38.5704 85.2932 38.8067C84.9824 39.0427 84.6574 39.2508 84.3157 39.4268C83.9755 39.6055 83.6175 39.7498 83.2458 39.8675C82.8739 39.9847 82.487 40.0729 82.0586 40.0806C82.3128 39.735 82.6087 39.4701 82.9193 39.2341C83.2303 38.9986 83.555 38.7897 83.8974 38.6152C84.2384 38.438 84.596 38.2928 84.9679 38.1757C85.34 38.0588 85.7267 37.9701 86.1545 37.9614Z" fill="#36386C"/>
<path d="M88.5349 47.747C88.2046 47.9893 87.8606 48.1425 87.5118 48.2642C87.1629 48.3857 86.8093 48.4761 86.4501 48.5308C86.0915 48.5887 85.7269 48.6081 85.3578 48.598C84.9886 48.5873 84.6145 48.5444 84.2266 48.4118C84.5567 48.1686 84.9006 48.0149 85.2495 47.8933C85.5985 47.7725 85.952 47.6812 86.3114 47.6281C86.6703 47.5719 87.0347 47.5516 87.4039 47.5623C87.7731 47.5733 88.1471 47.6156 88.5349 47.747Z" fill="#36386C"/>
<path d="M89.7275 56.8557C89.3336 57.0048 88.949 57.0643 88.5676 57.0922C88.1864 57.1197 87.8083 57.1161 87.4339 57.0764C87.0593 57.0399 86.6886 56.9649 86.3209 56.8601C85.9534 56.7547 85.5892 56.6169 85.2344 56.3887C85.6284 56.2386 86.013 56.1786 86.3943 56.1509C86.7756 56.124 87.1538 56.1266 87.5279 56.168C87.9024 56.2061 88.2733 56.2804 88.6408 56.3857C89.0083 56.4914 89.3726 56.6287 89.7275 56.8557Z" fill="#36386C"/>
<path d="M48.6496 87.1951C48.5156 86.785 48.4707 86.3872 48.4573 85.9938C48.4441 85.6004 48.462 85.2113 48.5156 84.8271C48.5662 84.4425 48.6551 84.0633 48.7735 83.6881C48.8926 83.313 49.0438 82.9423 49.2848 82.584C49.4199 82.9943 49.4652 83.3922 49.4784 83.7856C49.491 84.1789 49.474 84.5681 49.4187 84.952C49.3665 85.3363 49.2785 85.7158 49.1595 86.0909C49.0401 86.466 48.8894 86.8367 48.6496 87.1951Z" fill="#36386C"/>
<path d="M57.7461 87.2778C57.5156 86.9389 57.3744 86.5892 57.2647 86.2358C57.1554 85.8824 57.0771 85.5252 57.0347 85.1637C56.9891 84.8026 56.9821 84.437 57.0046 84.0677C57.0278 83.6984 57.0832 83.3253 57.2285 82.9413C57.4601 83.2801 57.6017 83.6297 57.7112 83.9831C57.82 84.3366 57.8992 84.6936 57.9399 85.0553C57.9837 85.4166 57.9917 85.7822 57.9686 86.1515C57.9452 86.5208 57.8903 86.8939 57.7461 87.2778Z" fill="#36386C"/>
<path d="M66.571 85.0484C66.2314 84.7004 65.9756 84.3195 65.7492 83.9269C65.5231 83.5341 65.3262 83.13 65.1629 82.7125C64.9966 82.2962 64.8664 81.8656 64.7639 81.4241C64.6621 80.9824 64.5904 80.5288 64.603 80.0419C64.9436 80.3894 65.1999 80.7702 65.426 81.1629C65.6515 81.5559 65.8493 81.9597 66.0111 82.3778C66.1758 82.7947 66.3068 83.225 66.4087 83.6667C66.5104 84.1085 66.5825 84.562 66.571 85.0484Z" fill="#36386C"/>
<path d="M74.5377 80.6519C74.171 80.4696 73.877 80.2342 73.6084 79.9801C73.3401 79.7258 73.0972 79.453 72.8834 79.1587C72.667 78.8663 72.4819 78.5511 72.3209 78.2182C72.1604 77.8849 72.026 77.5324 71.9648 77.1264C72.3325 77.3079 72.627 77.5431 72.8953 77.7974C73.163 78.0521 73.4068 78.3244 73.6192 78.6196C73.8342 78.913 74.0201 79.2277 74.1807 79.561C74.3409 79.8943 74.4756 80.2465 74.5377 80.6519Z" fill="#36386C"/>
<path d="M81.1408 74.3757C80.7008 74.2229 80.3222 74.0041 79.9653 73.7622C79.6086 73.52 79.2732 73.2549 78.9625 72.9633C78.6496 72.674 78.3632 72.3564 78.0971 72.017C77.8315 71.6769 77.588 71.3133 77.4062 70.8832C77.847 71.0353 78.2259 71.2537 78.5827 71.4957C78.939 71.7384 79.275 72.0028 79.5846 72.2956C79.8963 72.5861 80.1833 72.9031 80.449 73.243C80.7145 73.5832 80.9583 73.9465 81.1408 74.3757Z" fill="#36386C"/>
<path d="M86.0769 65.6024C85.6681 65.6237 85.2966 65.5629 84.9382 65.4733C84.5799 65.3833 84.2346 65.2648 83.9043 65.1134C83.5727 64.9648 83.2571 64.781 82.9539 64.5699C82.6509 64.3583 82.3614 64.117 82.1094 63.7932C82.5187 63.7708 82.8904 63.8311 83.2487 63.921C83.6067 64.0115 83.9524 64.1292 84.2819 64.2821C84.6129 64.4322 84.9289 64.6153 85.2318 64.8269C85.5347 65.0388 85.8244 65.2796 86.0769 65.6024Z" fill="#36386C"/>
<path d="M49.2469 16.7222C49.4774 17.0611 49.6185 17.4108 49.7282 17.7642C49.8376 18.1175 49.9159 18.4747 49.9583 18.8362C50.0039 19.1972 50.0109 19.563 49.9884 19.9322C49.9652 20.3015 49.9098 20.6747 49.7645 21.0586C49.5329 20.7198 49.3912 20.3703 49.2818 20.0168C49.173 19.6633 49.0938 19.3063 49.0531 18.9446C49.0093 18.5833 49.0013 18.2177 49.0243 17.8485C49.0478 17.4791 49.1027 17.106 49.2469 16.7222Z" fill="#36386C"/>
<path d="M40.4258 18.9517C40.7317 19.2139 40.9538 19.5092 41.1466 19.8162C41.3389 20.1232 41.5022 20.4416 41.6318 20.7735C41.7644 21.1041 41.8609 21.4489 41.9297 21.8047C41.9979 22.1608 42.0359 22.5287 41.9897 22.9299C41.6827 22.6681 41.4601 22.373 41.2676 22.066C41.0758 21.7588 40.9117 21.4405 40.7836 21.1081C40.6526 20.7769 40.5552 20.4323 40.487 20.0763C40.419 19.7202 40.3806 19.3525 40.4258 18.9517Z" fill="#36386C"/>
<path d="M32.457 23.3481C32.8238 23.5303 33.1178 23.7658 33.3864 24.0199C33.6546 24.2743 33.8976 24.5471 34.1114 24.8413C34.3278 25.1337 34.5129 25.4489 34.6739 25.7819C34.8344 26.1151 34.9687 26.4676 35.0299 26.8736C34.6623 26.6921 34.3678 26.4569 34.0995 26.2027C33.8317 25.948 33.588 25.6756 33.3755 25.3804C33.1605 25.0871 32.9747 24.7724 32.8141 24.4392C32.6539 24.1057 32.5191 23.7534 32.457 23.3481Z" fill="#36386C"/>
<path d="M25.8594 29.624C26.2733 29.7527 26.6259 29.947 26.9569 30.1647C27.2876 30.3825 27.597 30.6234 27.8818 30.8907C28.1686 31.1556 28.4291 31.449 28.6692 31.7641C28.9088 32.0798 29.1264 32.4192 29.2821 32.8249C28.8673 32.6972 28.5144 32.5031 28.1836 32.2854C27.8533 32.067 27.5433 31.8268 27.2597 31.5583C26.974 31.2922 26.7129 30.9995 26.4732 30.6839C26.2337 30.368 26.0158 30.029 25.8594 29.624Z" fill="#36386C"/>
<path d="M20.9219 38.3978C21.3307 38.3766 21.7022 38.4373 22.0605 38.5269C22.4188 38.6168 22.7641 38.7354 23.0944 38.8867C23.426 39.0353 23.7416 39.2192 24.0449 39.4302C24.3478 39.6419 24.6374 39.8832 24.8894 40.2071C24.4801 40.2293 24.1084 40.169 23.7501 40.0792C23.3921 39.9887 23.0464 39.871 22.7168 39.7181C22.3859 39.568 22.0699 39.3849 21.7669 39.1733C21.4641 38.9614 21.1743 38.7207 20.9219 38.3978Z" fill="#36386C"/>
<path d="M17.3086 46.8414C17.7749 46.6524 18.2413 46.5534 18.7076 46.4863C19.1739 46.4195 19.6403 46.384 20.1066 46.3848C20.5729 46.3823 21.0393 46.4187 21.5056 46.485C21.9719 46.5519 22.4382 46.6512 22.9046 46.8414C22.4382 47.0316 21.9719 47.131 21.5056 47.1979C21.0393 47.2642 20.5729 47.3005 20.1066 47.2981C19.6403 47.2989 19.1739 47.2634 18.7076 47.1965C18.2413 47.1293 17.7749 47.0304 17.3086 46.8414Z" fill="#36386C"/>
<path d="M39.871 84.8059C39.836 84.3972 39.884 84.0232 39.9613 83.6613C40.0389 83.2995 40.1454 82.9498 40.2853 82.6139C40.4223 82.2768 40.5951 81.9546 40.7953 81.6439C40.9963 81.3333 41.2271 81.0353 41.5416 80.772C41.5777 81.181 41.5301 81.5553 41.4526 81.9171C41.3745 82.2786 41.2688 82.6287 41.1273 82.964C40.9888 83.3004 40.8169 83.6229 40.616 83.9335C40.4149 84.2438 40.1845 84.5422 39.871 84.8059Z" fill="#36386C"/>
<path d="M31.9805 80.2655C32.0688 79.8365 32.2287 79.4619 32.4138 79.1066C32.5993 78.7515 32.8096 78.4153 33.0487 78.101C33.2854 77.7848 33.5528 77.4921 33.844 77.2175C34.1358 76.9431 34.4533 76.6886 34.843 76.4888C34.7557 76.9185 34.5961 77.2934 34.4108 77.6486C34.2249 78.0034 34.0152 78.34 33.7748 78.6534C33.5368 78.9685 33.2701 79.2618 32.9784 79.5362C32.6864 79.8102 32.3693 80.0651 31.9805 80.2655Z" fill="#36386C"/>
<path d="M25.4961 73.8702C25.6655 73.497 25.8904 73.1945 26.1348 72.917C26.3795 72.6398 26.6434 72.3873 26.9297 72.1633C27.214 71.9367 27.5223 71.7408 27.8489 71.5682C28.1759 71.3962 28.523 71.2498 28.9259 71.1748C28.7573 71.5492 28.5327 71.8519 28.2881 72.1292C28.0431 72.4059 27.7797 72.6592 27.4923 72.8819C27.207 73.1071 26.8993 73.3037 26.5723 73.4758C26.2451 73.6476 25.8984 73.7944 25.4961 73.8702Z" fill="#36386C"/>
<path d="M20.8398 66.0381C21.1149 65.683 21.4312 65.408 21.7621 65.1613C22.0931 64.9148 22.4385 64.6962 22.8005 64.5098C23.161 64.3205 23.5393 64.1658 23.9312 64.0375C24.3235 63.9099 24.7306 63.8111 25.1793 63.793C24.9048 64.1491 24.5887 64.4244 24.2577 64.671C23.9265 64.9169 23.5814 65.1363 23.2188 65.3213C22.8575 65.509 22.4796 65.6646 22.0874 65.7923C21.695 65.9198 21.288 66.0189 20.8398 66.0381Z" fill="#36386C"/>
<path d="M18.4609 56.2529C18.7912 56.0106 19.1352 55.8575 19.484 55.7357C19.8329 55.6142 20.1865 55.5238 20.5457 55.4691C20.9043 55.4114 21.2689 55.3919 21.638 55.4019C22.0072 55.4126 22.3813 55.4555 22.7692 55.588C22.4391 55.8314 22.0952 55.985 21.7463 56.1066C21.3973 56.2275 21.0438 56.3188 20.6845 56.3718C20.3255 56.428 19.9611 56.4483 19.5919 56.4376C19.2227 56.4266 18.8487 56.3843 18.4609 56.2529Z" fill="#36386C"/>
</g>
<defs>
<clipPath id="clip0_0_692">
<rect width="107" height="104" fill="white"/>
</clipPath>
</defs>
</svg>
