<svg width="270" height="36" viewBox="0 0 270 36" fill="none" xmlns="http://www.w3.org/2000/svg">
<g clip-path="url(#clip0_0_48)">
<path d="M260.012 11.3589H256.668V25.5116H260.012V11.3589Z" fill="#36386C"/>
<path d="M258.959 26.2441H257.859C257.31 26.2441 256.852 26.7022 256.852 27.2518V28.58C256.852 29.1296 257.31 29.5877 257.859 29.5877H258.959C259.508 29.5877 259.967 29.1296 259.967 28.58V27.2518C259.967 26.7022 259.508 26.2441 258.959 26.2441Z" fill="#C33D4A"/>
<path d="M44.571 11.5879H32.5232V29.9085H35.8673V23.1757H44.571C48.19 23.1757 50.0223 21.6642 50.0223 18.6871V16.1222C49.9765 13.1451 48.19 11.5879 44.571 11.5879ZM46.6325 16.2138V18.5497C46.6325 19.2367 46.495 19.649 46.1286 19.9696C45.8079 20.2444 45.2582 20.3818 44.4336 20.3818H35.8215V14.336H44.342C45.1666 14.336 45.7163 14.4734 46.0369 14.7482C46.4492 15.0688 46.6325 15.5726 46.6325 16.2138Z" fill="#36386C"/>
<path d="M51.7617 14.3818H58.9996V30.0001H62.2979V14.4734H69.5357V11.5879H51.7617V14.3818Z" fill="#36386C"/>
<path d="M75.0355 15.7559H71.6914V29.9085H75.0355V15.7559Z" fill="#36386C"/>
<path d="M72.7891 15.0686H73.8885C74.4382 15.0686 74.8963 14.6106 74.8963 14.061V12.7327C74.8963 12.1373 74.4382 11.7251 73.8885 11.7251H72.7891C72.2393 11.7251 71.7813 12.1831 71.7813 12.7327V14.061C71.7812 14.6106 72.2393 15.0686 72.7891 15.0686Z" fill="#C33D4A"/>
<path d="M96.5627 11.5879H91.7527L81.4914 19.3283V11.5879H78.1016V29.9085H81.4914V21.8932L92.165 29.9085H92.2108H97.0208L84.5149 20.6108L96.5627 11.5879Z" fill="#36386C"/>
<path d="M111.085 11.6796L111.04 11.6338H107.833L99.3125 30.0002H102.702L104.626 25.8323H114.338L116.262 30.0002H119.652L111.085 11.6796ZM112.964 22.9468H105.863L109.436 15.3437L112.964 22.9468Z" fill="#36386C"/>
<path d="M26.2016 11.771H13.6498C11.5426 11.771 9.84766 13.4657 9.84766 15.6183V25.9695C9.84766 28.0763 11.5426 29.8168 13.6498 29.8168H26.2474C28.3088 29.8168 30.0037 28.1221 30.0037 25.9695V15.5725C30.0037 13.4657 28.3088 11.771 26.2016 11.771ZM13.0543 15.5725C13.0543 15.2061 13.3292 14.9313 13.6498 14.9313H26.2016C26.5681 14.9313 26.7971 15.2061 26.7971 15.5725V25.9237C26.7971 26.2901 26.5222 26.5649 26.2016 26.5649H13.6498C13.2834 26.5649 13.0543 26.2901 13.0543 25.9237V15.5725Z" fill="#36386C"/>
<path d="M194.323 4.21374C191.208 1.60305 187.177 0 182.779 0C177.328 0 172.472 2.42748 169.128 6.27481C167.662 5.54198 164.593 4.25954 161.798 4.25954C159.05 4.25954 156.026 5.54199 154.561 6.22901C151.262 2.42748 146.407 0 140.955 0C136.558 0 132.526 1.60305 129.411 4.21374H0V12.5954H2.74856V6.96183H126.754C124.372 10.0305 122.952 13.8321 122.952 18C122.952 27.9389 131.015 36 140.955 36C150.896 36 158.958 27.9389 158.958 18C158.958 14.3359 157.859 10.9466 155.981 8.10687C157.034 7.87786 159.141 7.55725 161.569 7.55725C164.226 7.55725 166.654 7.96947 167.662 8.19847C165.83 11.0382 164.73 14.4275 164.73 18.0458C164.73 27.9847 172.793 36.0458 182.733 36.0458C187.543 36.0458 191.895 34.1679 195.102 31.0992H190.612C188.322 32.5191 185.619 33.2977 182.733 33.2977C174.304 33.2977 167.479 26.4733 167.479 18.0458C167.479 9.61832 174.35 2.74809 182.779 2.74809C188.368 2.74809 193.269 5.77099 195.926 10.2595H199.041C198.492 9.0687 197.805 7.96947 197.026 6.96183H267.343V12.5954H270.092V4.21374H194.323ZM156.21 18C156.21 26.4275 149.384 33.2519 140.955 33.2519C132.526 33.2519 125.701 26.4275 125.701 18C125.701 9.57252 132.572 2.74809 140.955 2.74809C149.384 2.74809 156.21 9.57252 156.21 18Z" fill="#36386C"/>
<path d="M193.222 20.2442C193.818 19.9694 194.276 19.5114 194.642 18.9159C195.055 18.2747 195.238 17.4503 195.238 16.4885C195.238 15.0228 194.826 13.7862 194.001 12.8701C193.222 11.9541 191.894 11.4961 190.153 11.4961H183.969V29.8167H184.06V29.8625H190.428C191.665 29.8625 192.673 29.6335 193.497 29.2213C194.276 28.7633 194.871 28.122 195.238 27.3434C195.604 26.519 195.788 25.6488 195.788 24.6411C195.788 23.4503 195.513 22.4427 195.009 21.7098C194.642 20.977 194.001 20.4732 193.222 20.2442ZM192.398 16.6717C192.398 17.4503 192.214 17.9999 191.848 18.4121C191.436 18.8701 190.794 19.0533 189.832 19.0533H186.809V14.3816H189.832C190.84 14.3816 191.527 14.5648 191.848 14.9312C192.214 15.3434 192.398 15.893 192.398 16.6717ZM186.901 21.7556H190.245C191.298 21.7556 192.077 21.9846 192.489 22.4427C192.902 22.9465 193.085 23.5877 193.085 24.4121C193.085 25.2824 192.856 25.9694 192.489 26.3358C192.031 26.748 191.252 26.9312 190.245 26.9312H186.901V21.7556Z" fill="#C33D4A"/>
<path d="M201.925 24.4121V11.4961H198.719V29.9083H201.742L209.942 16.9465V29.9083H213.103V11.4961H210.125L201.925 24.4121Z" fill="#C33D4A"/>
<path d="M237.245 11.4961H234.038L229.182 19.0533H227.899V11.4961H224.922V19.0533H223.639L218.875 11.5419L218.829 11.4961H215.531L221.257 20.29L215.439 29.7251L215.348 29.9083H218.692L223.593 21.8014H224.83V29.9083H227.899V21.7556H229.136L233.992 29.8167L234.038 29.9083H237.474L231.518 20.1984L237.245 11.4961Z" fill="#C33D4A"/>
<path d="M251.492 11.542L247.278 21.8931L242.239 11.542H238.574L245.629 25.5573C245.491 26.0153 245.308 26.3359 245.125 26.6107C244.896 26.8855 244.667 27.0229 244.438 27.1145C244.117 27.2061 243.796 27.2519 243.384 27.2519C243.338 27.2519 243.247 27.2519 243.201 27.2519C243.018 27.2519 242.834 27.2061 242.651 27.2061C242.56 27.2061 242.514 27.2061 242.422 27.2061H242.331V30.1832L242.422 30.229C242.56 30.2748 242.743 30.2748 242.926 30.2748H243.43C244.117 30.2748 244.713 30.1832 245.308 30.0458C245.812 29.8626 246.224 29.6336 246.682 29.313C247.095 28.9466 247.461 28.4886 247.736 27.9847C248.057 27.5267 248.377 26.8855 248.698 26.1069L254.699 11.6794L254.745 11.542H251.492Z" fill="#C33D4A"/>
</g>
<defs>
<clipPath id="clip0_0_48">
<rect width="270" height="36" fill="white"/>
</clipPath>
</defs>
</svg>
