<svg width="237" height="255" viewBox="0 0 237 255" fill="none" xmlns="http://www.w3.org/2000/svg">
<path d="M18.7423 246.847C18.3819 247.266 18.4289 247.897 18.8474 248.258L25.6668 254.131C26.0853 254.491 26.7167 254.444 27.0771 254.026C27.4375 253.607 27.3904 252.976 26.972 252.616L20.9103 247.395L26.131 241.333C26.4915 240.915 26.4444 240.283 26.0259 239.923C25.6075 239.562 24.976 239.61 24.6156 240.028L18.7423 246.847ZM0.5 2C58.436 2.00001 117.79 10.0453 162.171 31.1035C184.353 41.6281 202.75 55.3825 215.378 72.9647C227.997 90.5333 234.893 111.976 234.001 137.966L235.999 138.034C236.907 111.624 229.891 89.742 217.003 71.798C204.125 53.8677 185.422 39.922 163.029 29.2966C118.26 8.05475 58.564 1.26362e-05 0.5 0L0.5 2ZM234.001 137.966C233.107 163.992 225.951 183.211 214.131 197.561C202.303 211.922 185.728 221.5 165.835 228.101C125.98 241.325 73.1969 242.495 19.4257 246.503L19.5743 248.497C73.1364 244.505 126.303 243.325 166.465 229.999C186.581 223.325 203.531 213.578 215.675 198.833C227.828 184.077 235.093 164.408 235.999 138.034L234.001 137.966Z" fill="#F9F3E9"/>
</svg>
