<svg width="152" height="65" viewBox="0 0 152 65" fill="none" xmlns="http://www.w3.org/2000/svg">
<path d="M149.892 64.9902C150.161 65.0501 150.428 64.8801 150.488 64.6105L151.464 60.2177C151.524 59.9482 151.354 59.6811 151.085 59.6212C150.815 59.5612 150.548 59.7312 150.488 60.0008L149.62 63.9055L145.716 63.0377C145.446 62.9778 145.179 63.1478 145.119 63.4173C145.059 63.6869 145.229 63.954 145.499 64.0139L149.892 64.9902ZM0.000691877 1.00117C20.6609 1.00094 52.8434 8.72647 82.5022 20.5902C97.325 26.5194 111.498 33.4748 123.27 41.0007C135.05 48.5323 144.386 56.6103 149.578 64.7705L150.422 64.2336C145.115 55.8932 135.637 47.7207 123.809 40.1582C111.971 32.59 97.7381 25.6076 82.8736 19.6617C53.1578 7.77519 20.8406 0.000936447 0.000680771 0.00116735L0.000691877 1.00117Z" fill="#C50013"/>
</svg>
