<svg width="152" height="69" viewBox="0 0 152 69" fill="none" xmlns="http://www.w3.org/2000/svg">
<path d="M151.421 5.11562C151.651 4.96304 151.714 4.65277 151.561 4.42261L149.075 0.671898C148.922 0.441734 148.612 0.378841 148.382 0.531416C148.151 0.683997 148.089 0.994266 148.241 1.22443L150.451 4.5584L147.117 6.76852C146.887 6.9211 146.824 7.23137 146.977 7.46154C147.129 7.6917 147.44 7.7546 147.67 7.60201L151.421 5.11562ZM1.34617 68.673C15.6794 53.7934 43.5706 35.9754 72.6911 22.8459C87.245 16.2841 102.087 10.9019 115.674 7.64532C129.271 4.38628 141.565 3.26734 151.045 5.18891L151.244 4.20884C141.555 2.24483 129.094 3.40043 115.441 6.67286C101.778 9.94775 86.8749 15.354 72.2801 21.9343C43.1036 35.089 15.0839 52.9703 0.62597 67.9793L1.34617 68.673Z" fill="#C50013"/>
</svg>
