<svg width="195" height="195" viewBox="0 0 195 195" fill="none" xmlns="http://www.w3.org/2000/svg">
<g clip-path="url(#clip0_0_233)">
<g opacity="0.47">
<path fill-rule="evenodd" clip-rule="evenodd" d="M97.4292 194.863C151.092 194.863 194.861 151.092 194.861 97.4326C194.861 43.7675 151.092 0 97.4292 0C43.7676 0 0 43.7675 0 97.4326C0 151.092 43.7676 194.863 97.4292 194.863Z" fill="url(#paint0_radial_0_233)"/>
</g>
<path fill-rule="evenodd" clip-rule="evenodd" d="M96.8276 3.18445C135.506 3.18445 168.654 26.9042 182.612 60.6307C172.646 59.2108 162.466 58.4608 152.109 58.4608C97.71 58.4608 47.9287 78.576 10.1274 112.057C8.08886 113.861 5.28466 112.025 5.00146 110.125C4.32957 105.614 3.98047 100.996 3.98047 96.2977C3.98047 44.87 45.5493 3.18445 96.8276 3.18445Z" fill="url(#paint1_linear_0_233)" fill-opacity="0.1"/>
<path fill-rule="evenodd" clip-rule="evenodd" d="M91.0861 12.3623C98.1501 21.9453 87.7091 41.6025 67.7711 56.2832C47.8419 70.9668 25.9596 75.0771 18.8961 65.4824C11.8332 55.8867 22.2707 36.2148 42.2116 21.5605C62.1374 6.87597 84.0338 2.76947 91.0861 12.3623Z" fill="url(#paint2_radial_0_233)" style="mix-blend-mode:overlay"/>
</g>
<defs>
<radialGradient id="paint0_radial_0_233" cx="0" cy="0" r="1" gradientUnits="userSpaceOnUse" gradientTransform="translate(136.43 179.926) scale(684.243 684.243)">
<stop stop-color="#A7EFA7"/>
<stop offset="0.222237" stop-color="#0B2003"/>
<stop offset="0.256197" stop-color="#1D3116"/>
<stop offset="0.374799" stop-color="#586753"/>
<stop offset="0.492672" stop-color="#8B9587"/>
<stop offset="0.606977" stop-color="#B5BBB2"/>
<stop offset="0.716922" stop-color="#D5D9D4"/>
<stop offset="0.821442" stop-color="#ECEEEC"/>
<stop offset="0.918288" stop-color="#FAFBFA"/>
<stop offset="1" stop-color="white"/>
</radialGradient>
<linearGradient id="paint1_linear_0_233" x1="183.009" y1="52.5947" x2="6.66722" y2="59.8346" gradientUnits="userSpaceOnUse">
<stop stop-color="#809E86"/>
<stop offset="0.148611" stop-color="#89A390"/>
<stop offset="0.397318" stop-color="#A2B0A9"/>
<stop offset="0.713476" stop-color="#CAC5D3"/>
<stop offset="1" stop-color="#F4DBFF"/>
</linearGradient>
<radialGradient id="paint2_radial_0_233" cx="0" cy="0" r="1" gradientUnits="userSpaceOnUse" gradientTransform="translate(54.9909 38.9221) rotate(-36.354) scale(44.8102 21.5596)">
<stop stop-color="#D9D9D9"/>
<stop offset="0.101347" stop-color="#CDCDCD"/>
<stop offset="0.499786" stop-color="#A3A3A3"/>
<stop offset="0.812918" stop-color="#8A8A8A"/>
<stop offset="1" stop-color="#808080"/>
</radialGradient>
<clipPath id="clip0_0_233">
<rect width="194.861" height="194.863" fill="white"/>
</clipPath>
</defs>
</svg>
