<svg width="195" height="195" viewBox="0 0 195 195" fill="none" xmlns="http://www.w3.org/2000/svg">
<g clip-path="url(#clip0_0_214)">
<g opacity="0.47">
<path fill-rule="evenodd" clip-rule="evenodd" d="M97.4292 194.864C151.092 194.864 194.861 151.092 194.861 97.4336C194.861 43.7676 151.092 0 97.4292 0C43.7676 0 0 43.7676 0 97.4336C0 151.092 43.7676 194.864 97.4292 194.864Z" fill="url(#paint0_radial_0_214)"/>
</g>
<path opacity="0.1" fill-rule="evenodd" clip-rule="evenodd" d="M96.8276 3.18506C135.506 3.18506 168.654 26.9053 182.612 60.6309C172.646 59.2114 162.466 58.4614 152.109 58.4614C97.71 58.4614 47.9287 78.5772 10.1274 112.057C8.08886 113.861 5.28466 112.025 5.00146 110.125C4.32957 105.615 3.98047 100.997 3.98047 96.2988C3.98047 44.8706 45.5493 3.18506 96.8276 3.18506Z" fill="url(#paint1_linear_0_214)"/>
<path fill-rule="evenodd" clip-rule="evenodd" d="M91.9401 12.7058C99.0305 22.3269 88.55 42.0564 68.5383 56.7922C48.5339 71.531 26.569 75.6565 19.4787 66.0266C12.3889 56.3952 22.8664 36.6482 42.8825 21.9382C62.883 7.19993 84.8615 3.07783 91.9401 12.7058Z" fill="url(#paint2_radial_0_214)" style="mix-blend-mode:overlay"/>
</g>
<defs>
<radialGradient id="paint0_radial_0_214" cx="0" cy="0" r="1" gradientUnits="userSpaceOnUse" gradientTransform="translate(136.43 179.927) scale(684.243 684.243)">
<stop stop-color="#FB8FC5"/>
<stop offset="0.222237" stop-color="#410109"/>
<stop offset="0.25961" stop-color="#51161D"/>
<stop offset="0.377659" stop-color="#7E5358"/>
<stop offset="0.495012" stop-color="#A5878B"/>
<stop offset="0.608744" stop-color="#C6B2B5"/>
<stop offset="0.718197" stop-color="#DFD4D5"/>
<stop offset="0.822248" stop-color="#F0ECEC"/>
<stop offset="0.918657" stop-color="#FBFAFA"/>
<stop offset="1" stop-color="white"/>
</radialGradient>
<linearGradient id="paint1_linear_0_214" x1="183.009" y1="52.5951" x2="6.66719" y2="59.8349" gradientUnits="userSpaceOnUse">
<stop stop-color="#8F809E"/>
<stop offset="0.14332" stop-color="#978AA3"/>
<stop offset="0.383207" stop-color="#AEA3AF"/>
<stop offset="0.690144" stop-color="#D3CEC3"/>
<stop offset="1" stop-color="#FFFFDB"/>
</linearGradient>
<radialGradient id="paint2_radial_0_214" cx="0" cy="0" r="1" gradientUnits="userSpaceOnUse" gradientTransform="translate(55.7093 39.366) rotate(-36.354) scale(44.9792 21.6409)">
<stop stop-color="#D9D9D9"/>
<stop offset="0.101347" stop-color="#CDCDCD"/>
<stop offset="0.499786" stop-color="#A3A3A3"/>
<stop offset="0.812918" stop-color="#8A8A8A"/>
<stop offset="1" stop-color="#808080"/>
</radialGradient>
<clipPath id="clip0_0_214">
<rect width="194.861" height="194.864" fill="white"/>
</clipPath>
</defs>
</svg>
