<svg width="30" height="30" viewBox="0 0 30 30" fill="none" xmlns="http://www.w3.org/2000/svg">
<path d="M22.6272 24.945H7.36719C6.26719 24.945 5.36719 24.05 5.36719 22.95V5C5.36719 3.9 6.26219 3 7.36719 3H22.6322C23.7322 3 24.6322 3.895 24.6322 5V22.95C24.6272 24.05 23.7322 24.945 22.6272 24.945ZM7.36719 4C6.81719 4 6.36719 4.45 6.36719 5V22.95C6.36719 23.5 6.81219 23.945 7.36719 23.945H22.6322C23.1822 23.945 23.6322 23.495 23.6322 22.95V5C23.6322 4.45 23.1872 4 22.6322 4H7.36719Z" fill="#C50013"/>
<path d="M24.1272 19.3449H5.86719C5.59219 19.3449 5.36719 19.1199 5.36719 18.8449V6.79492C5.36719 6.51992 5.59219 6.29492 5.86719 6.29492H24.1272C24.4022 6.29492 24.6272 6.51992 24.6272 6.79492V18.8399C24.6272 19.1199 24.4022 19.3449 24.1272 19.3449ZM6.36719 18.3449H23.6272V7.29492H6.36719V18.3449Z" fill="#C50013"/>
<path d="M14.9972 19.3449H5.86719C5.59219 19.3449 5.36719 19.1199 5.36719 18.8449V6.79492C5.36719 6.51992 5.59219 6.29492 5.86719 6.29492H14.9972C15.2722 6.29492 15.4972 6.51992 15.4972 6.79492V18.8399C15.4972 19.1199 15.2722 19.3449 14.9972 19.3449ZM6.36719 18.3449H14.4972V7.29492H6.36719V18.3449Z" fill="#C50013"/>
<path d="M22.1362 27.0003H19.8962C19.3512 27.0003 18.9062 26.5553 18.9062 26.0103V24.4453C18.9062 24.1703 19.1312 23.9453 19.4062 23.9453H22.6213C22.8963 23.9453 23.1213 24.1703 23.1213 24.4453V26.0103C23.1263 26.5553 22.6812 27.0003 22.1362 27.0003ZM19.9062 24.9453V26.0103L22.1262 26.0003V24.9453H19.9062Z" fill="#C50013"/>
<path d="M10.105 27.0003H7.865C7.32 27.0003 6.875 26.5553 6.875 26.0103V24.4453C6.875 24.1703 7.1 23.9453 7.375 23.9453H10.59C10.865 23.9453 11.09 24.1703 11.09 24.4453V26.0103C11.095 26.5553 10.65 27.0003 10.105 27.0003ZM7.875 26.0003H10.105L10.095 24.9453H7.875V26.0003Z" fill="#C50013"/>
<path d="M26.2878 14.0299H24.1328C23.8578 14.0299 23.6328 13.8049 23.6328 13.5299V6.79492C23.6328 6.51992 23.8578 6.29492 24.1328 6.29492H26.2878C26.5628 6.29492 26.7878 6.51992 26.7878 6.79492V13.5249C26.7878 13.8049 26.5678 14.0299 26.2878 14.0299ZM24.6328 13.0299H25.7878V7.29492H24.6328V13.0299Z" fill="#C50013"/>
<path d="M5.86997 14.0299H3.71497C3.43997 14.0299 3.21497 13.8049 3.21497 13.5299V6.79492C3.21497 6.51992 3.43997 6.29492 3.71497 6.29492H5.86997C6.14497 6.29492 6.36997 6.51992 6.36997 6.79492V13.5249C6.36997 13.8049 6.14497 14.0299 5.86997 14.0299ZM4.21497 13.0299H5.36997V7.29492H4.21497V13.0299Z" fill="#C50013"/>
<path d="M9.48437 23.1445C8.65937 23.1445 7.98438 22.4695 7.98438 21.6445C7.98438 20.8195 8.65937 20.1445 9.48437 20.1445C10.3094 20.1445 10.9844 20.8195 10.9844 21.6445C10.9844 22.4695 10.3144 23.1445 9.48437 23.1445ZM9.48437 21.1445C9.20937 21.1445 8.98437 21.3695 8.98437 21.6445C8.98437 21.9195 9.20937 22.1445 9.48437 22.1445C9.75937 22.1445 9.98437 21.9195 9.98437 21.6445C9.98437 21.3695 9.75937 21.1445 9.48437 21.1445Z" fill="#C50013"/>
<path d="M20.5156 23.1445C19.6906 23.1445 19.0156 22.4695 19.0156 21.6445C19.0156 20.8195 19.6906 20.1445 20.5156 20.1445C21.3406 20.1445 22.0156 20.8195 22.0156 21.6445C22.0156 22.4695 21.3406 23.1445 20.5156 23.1445ZM20.5156 21.1445C20.2406 21.1445 20.0156 21.3695 20.0156 21.6445C20.0156 21.9195 20.2406 22.1445 20.5156 22.1445C20.7906 22.1445 21.0156 21.9195 21.0156 21.6445C21.0156 21.3695 20.7906 21.1445 20.5156 21.1445Z" fill="#C50013"/>
<path d="M17.3352 21.1445H12.6602C12.3852 21.1445 12.1602 20.9195 12.1602 20.6445C12.1602 20.3695 12.3852 20.1445 12.6602 20.1445H17.3352C17.6102 20.1445 17.8352 20.3695 17.8352 20.6445C17.8352 20.9195 17.6152 21.1445 17.3352 21.1445Z" fill="#C50013"/>
<path d="M17.3352 23.1445H12.6602C12.3852 23.1445 12.1602 22.9195 12.1602 22.6445C12.1602 22.3695 12.3852 22.1445 12.6602 22.1445H17.3352C17.6102 22.1445 17.8352 22.3695 17.8352 22.6445C17.8352 22.9195 17.6152 23.1445 17.3352 23.1445Z" fill="#C50013"/>
</svg>
