<svg width="165" height="165" viewBox="0 0 165 165" fill="none" xmlns="http://www.w3.org/2000/svg">
<g clip-path="url(#clip0_0_411)">
<path d="M82.4297 12.6265V40.7982" stroke="#36386C" stroke-width="2" stroke-miterlimit="10" stroke-linecap="round"/>
<path d="M82.4297 47.9985V55.3387" stroke="#36386C" stroke-width="2" stroke-miterlimit="10" stroke-linecap="round"/>
<path d="M62.8047 35.1787L72.0381 57.411" stroke="#36386C" stroke-width="2" stroke-miterlimit="10" stroke-linecap="round"/>
<path d="M52.6992 52.8101L63.2388 63.3102" stroke="#36386C" stroke-width="2" stroke-miterlimit="10" stroke-linecap="round"/>
<path d="M35.1055 62.9844L52.317 70.0571" stroke="#36386C" stroke-width="2" stroke-miterlimit="10" stroke-linecap="round"/>
<path d="M46.2383 82.6244L55.3385 82.5342" stroke="#36386C" stroke-width="2" stroke-miterlimit="10" stroke-linecap="round"/>
<path d="M60.6133 1L66.844 24.2532" stroke="#36386C" stroke-width="2" stroke-miterlimit="10" stroke-linecap="round"/>
<path d="M48.0156 22.8198L52.3172 30.2704" stroke="#36386C" stroke-width="2" stroke-miterlimit="10" stroke-linecap="round"/>
<path d="M22.8203 22.8198L39.8428 39.8423" stroke="#36386C" stroke-width="2" stroke-miterlimit="10" stroke-linecap="round"/>
<path d="M22.7891 47.9985L30.2685 52.3167" stroke="#36386C" stroke-width="2" stroke-miterlimit="10" stroke-linecap="round"/>
<path d="M1 60.6128L24.2531 66.8435" stroke="#36386C" stroke-width="2" stroke-miterlimit="10" stroke-linecap="round"/>
<path d="M14.4531 82.4326H36.9146" stroke="#36386C" stroke-width="2" stroke-miterlimit="10" stroke-linecap="round"/>
<path d="M102.06 35.1785L95.4062 51.1997" stroke="#36386C" stroke-width="2" stroke-miterlimit="10" stroke-linecap="round"/>
<path d="M112.169 52.8101L101.629 63.3102" stroke="#36386C" stroke-width="2" stroke-miterlimit="10" stroke-linecap="round"/>
<path d="M129.763 62.9844L107.496 72.1344" stroke="#36386C" stroke-width="2" stroke-miterlimit="10" stroke-linecap="round"/>
<path d="M118.631 82.6244L109.531 82.5342" stroke="#36386C" stroke-width="2" stroke-miterlimit="10" stroke-linecap="round"/>
<path d="M104.254 1L98.0234 24.2532" stroke="#36386C" stroke-width="2" stroke-miterlimit="10" stroke-linecap="round"/>
<path d="M116.852 22.8198L112.551 30.2704" stroke="#36386C" stroke-width="2" stroke-miterlimit="10" stroke-linecap="round"/>
<path d="M142.046 22.8198L125.023 39.8423" stroke="#36386C" stroke-width="2" stroke-miterlimit="10" stroke-linecap="round"/>
<path d="M142.077 47.9985L134.598 52.3167" stroke="#36386C" stroke-width="2" stroke-miterlimit="10" stroke-linecap="round"/>
<path d="M163.866 60.6128L140.613 66.8435" stroke="#36386C" stroke-width="2" stroke-miterlimit="10" stroke-linecap="round"/>
<path d="M150.415 82.4326H127.953" stroke="#36386C" stroke-width="2" stroke-miterlimit="10" stroke-linecap="round"/>
<path d="M82.4297 152.164V123.992" stroke="#36386C" stroke-width="2" stroke-miterlimit="10" stroke-linecap="round"/>
<path d="M82.4297 116.792V109.451" stroke="#36386C" stroke-width="2" stroke-miterlimit="10" stroke-linecap="round"/>
<path d="M62.8047 129.612L71.4681 108.752" stroke="#36386C" stroke-width="2" stroke-miterlimit="10" stroke-linecap="round"/>
<path d="M52.6992 111.98L63.2388 101.48" stroke="#36386C" stroke-width="2" stroke-miterlimit="10" stroke-linecap="round"/>
<path d="M35.1055 101.806L62.8076 90.4222" stroke="#36386C" stroke-width="2" stroke-miterlimit="10" stroke-linecap="round"/>
<path d="M60.6133 163.79L66.844 140.537" stroke="#36386C" stroke-width="2" stroke-miterlimit="10" stroke-linecap="round"/>
<path d="M48.0156 141.97L52.3172 134.52" stroke="#36386C" stroke-width="2" stroke-miterlimit="10" stroke-linecap="round"/>
<path d="M22.8203 141.971L39.8428 124.948" stroke="#36386C" stroke-width="2" stroke-miterlimit="10" stroke-linecap="round"/>
<path d="M22.7891 116.792L30.2685 112.473" stroke="#36386C" stroke-width="2" stroke-miterlimit="10" stroke-linecap="round"/>
<path d="M1 104.177L24.2531 97.9468" stroke="#36386C" stroke-width="2" stroke-miterlimit="10" stroke-linecap="round"/>
<path d="M102.058 129.612L92.8245 107.38" stroke="#36386C" stroke-width="2" stroke-miterlimit="10" stroke-linecap="round"/>
<path d="M112.165 111.98L101.625 101.48" stroke="#36386C" stroke-width="2" stroke-miterlimit="10" stroke-linecap="round"/>
<path d="M129.761 101.806L113.422 95.0916" stroke="#36386C" stroke-width="2" stroke-miterlimit="10" stroke-linecap="round"/>
<path d="M104.25 163.79L98.0198 140.537" stroke="#36386C" stroke-width="2" stroke-miterlimit="10" stroke-linecap="round"/>
<path d="M116.849 141.97L112.547 134.52" stroke="#36386C" stroke-width="2" stroke-miterlimit="10" stroke-linecap="round"/>
<path d="M142.046 141.971L125.024 124.948" stroke="#36386C" stroke-width="2" stroke-miterlimit="10" stroke-linecap="round"/>
<path d="M142.073 116.792L134.594 112.473" stroke="#36386C" stroke-width="2" stroke-miterlimit="10" stroke-linecap="round"/>
<path d="M163.863 104.177L140.61 97.9466" stroke="#36386C" stroke-width="2" stroke-miterlimit="10" stroke-linecap="round"/>
</g>
<defs>
<clipPath id="clip0_0_411">
<rect width="164.865" height="164.79" fill="white"/>
</clipPath>
</defs>
</svg>
