<svg width="161" height="162" viewBox="0 0 161 162" fill="none" xmlns="http://www.w3.org/2000/svg">
<g clip-path="url(#clip0_0_603)">
<path d="M77.6632 17.8451L79.4552 0.899857C79.5136 0.347657 80.0087 -0.052743 80.561 0.00565703C81.0413 0.056457 81.4066 0.438057 81.4552 0.899857L83.2473 17.8451C83.4104 19.3871 82.2925 20.7693 80.7505 20.9324C79.2085 21.0955 77.8262 19.9777 77.6632 18.4357C77.6425 18.2405 77.6445 18.033 77.6632 17.8451Z" fill="#36386C"/>
<path d="M108.484 24.3886L118.284 10.4492C118.604 9.99502 119.231 9.88563 119.685 10.2049C120.08 10.4828 120.214 10.9939 120.032 11.4211L113.365 27.102C112.758 28.529 111.109 29.1939 109.682 28.5871C108.255 27.9804 107.59 26.3318 108.197 24.9048C108.274 24.7242 108.377 24.5438 108.484 24.3886Z" fill="#36386C"/>
<path d="M131.179 47.3803L146.517 39.959C147.017 39.7172 147.619 39.9264 147.86 40.4263C148.071 40.8611 147.939 41.3728 147.573 41.6579L134.126 52.1233C132.902 53.0757 131.138 52.8557 130.186 51.632C129.233 50.4083 129.453 48.6443 130.677 47.6919C130.832 47.5714 131.009 47.4635 131.179 47.3803Z" fill="#36386C"/>
<path d="M142.952 77.4696L159.964 78.4367C160.518 78.4682 160.942 78.9432 160.911 79.4977C160.883 79.9799 160.52 80.3633 160.061 80.4342L143.223 83.0472C141.691 83.285 140.256 82.2356 140.018 80.7033C139.78 79.1711 140.83 77.7361 142.362 77.4983C142.556 77.4683 142.763 77.4601 142.952 77.4696Z" fill="#36386C"/>
<path d="M94.8742 18.3398L93.4258 23.234" stroke="#36386C" stroke-miterlimit="10" stroke-linecap="round"/>
<path d="M122.749 34.6602L119.156 38.2851" stroke="#36386C" stroke-miterlimit="10" stroke-linecap="round"/>
<path d="M141.119 63.0035L136.324 64.7528" stroke="#36386C" stroke-miterlimit="10" stroke-linecap="round"/>
<path d="M80.9558 32.3613L82.171 40.5845C82.3109 41.5317 81.6565 42.4131 80.7093 42.553C79.762 42.693 78.8807 42.0386 78.7407 41.0913C78.7156 40.9216 78.7176 40.7461 78.7407 40.5845L79.9558 32.3613C79.9966 32.0852 80.2536 31.8944 80.5297 31.9352C80.7553 31.9685 80.9239 32.1468 80.9558 32.3613Z" fill="#36386C"/>
<path d="M92.6904 34.6079L90.2043 47.9102C90.0295 48.845 89.13 49.4613 88.1951 49.2865C87.2602 49.1118 86.644 48.2123 86.8187 47.2774C86.8374 47.1773 86.8681 47.0719 86.9026 46.9798L91.7279 34.3367C91.8268 34.0777 92.1169 33.9478 92.376 34.0466C92.6063 34.1345 92.7344 34.3738 92.6904 34.6079Z" fill="#36386C"/>
<path d="M104.337 39.8466L101.079 47.4942C100.704 48.3751 99.6858 48.7851 98.8048 48.4098C97.9239 48.0347 97.5139 47.0164 97.8891 46.1354C97.9564 45.9776 98.0498 45.8289 98.1538 45.703L103.484 39.3244C103.663 39.1102 103.981 39.0817 104.196 39.2606C104.371 39.4069 104.421 39.647 104.337 39.8466Z" fill="#36386C"/>
<path d="M114.134 48.0361L104.555 59.2162C103.937 59.938 102.85 60.0218 102.129 59.4033C101.407 58.7849 101.323 57.6985 101.941 56.9767C102.002 56.906 102.075 56.8353 102.143 56.777L113.431 47.325C113.643 47.1472 113.96 47.1751 114.138 47.3875C114.298 47.5785 114.291 47.8532 114.134 48.0361Z" fill="#36386C"/>
<path d="M121.319 58.5956L114.548 63.4171C113.768 63.9725 112.686 63.7905 112.13 63.0105C111.575 62.2304 111.757 61.1479 112.537 60.5925C112.677 60.493 112.834 60.415 112.988 60.362L120.865 57.7049C121.129 57.6157 121.416 57.7578 121.505 58.0223C121.578 58.2385 121.496 58.4697 121.319 58.5956Z" fill="#36386C"/>
<path d="M125.421 70.6912L112.633 75.5369C111.744 75.8738 110.75 75.426 110.413 74.5367C110.076 73.6474 110.524 72.6534 111.413 72.3164C111.507 72.2806 111.612 72.2523 111.707 72.2338L125.151 69.7283C125.423 69.6775 125.685 69.8572 125.736 70.1298C125.781 70.3724 125.644 70.6068 125.421 70.6912Z" fill="#36386C"/>
<path d="M126.863 81.0495L118.64 82.2647C117.693 82.4046 116.811 81.7502 116.671 80.8031C116.531 79.8558 117.186 78.9745 118.133 78.8344C118.303 78.8094 118.478 78.8114 118.64 78.8344L126.863 80.0495C127.139 80.0904 127.33 80.3473 127.289 80.6235C127.256 80.8491 127.077 81.0177 126.863 81.0495Z" fill="#36386C"/>
<path d="M47.5449 27.1019L40.8773 11.421C40.66 10.9099 40.8982 10.3195 41.4093 10.102C41.8538 9.91306 42.3585 10.0692 42.6254 10.4491L52.4254 24.3885C53.3172 25.6571 53.0119 27.4083 51.7434 28.3002C50.4749 29.1919 48.7236 28.8866 47.8318 27.618C47.719 27.4575 47.6199 27.2751 47.5449 27.1019Z" fill="#36386C"/>
<path d="M26.7881 52.1235L13.3411 41.6581C12.9028 41.3169 12.8241 40.6852 13.1652 40.2468C13.4618 39.8657 13.9788 39.7568 14.3967 39.9592L29.7353 47.3805C31.1311 48.0558 31.7152 49.7348 31.0399 51.1306C30.3645 52.5265 28.6855 53.1106 27.2897 52.4352C27.1131 52.3497 26.9378 52.2385 26.7881 52.1235Z" fill="#36386C"/>
<path d="M17.6896 83.0474L0.851521 80.4344C0.302722 80.3494 -0.0730785 79.8354 0.0120215 79.2866C0.0861215 78.8093 0.485022 78.463 0.948622 78.4369L17.9608 77.4698C19.5089 77.3818 20.8352 78.5655 20.9232 80.1136C21.0112 81.6617 19.8276 82.988 18.2795 83.076C18.0836 83.0873 17.8763 83.0752 17.6896 83.0474Z" fill="#36386C"/>
<path d="M66.0352 18.3401L67.4835 23.2343" stroke="#36386C" stroke-miterlimit="10" stroke-linecap="round"/>
<path d="M38.1601 34.6604L41.7532 38.2853" stroke="#36386C" stroke-miterlimit="10" stroke-linecap="round"/>
<path d="M19.7891 63.0037L24.5839 64.753" stroke="#36386C" stroke-miterlimit="10" stroke-linecap="round"/>
<path d="M69.1823 34.3369L74.0913 47.2768C74.4286 48.166 73.9813 49.1601 73.0922 49.4974C72.2031 49.8347 71.209 49.3874 70.8717 48.4983C70.8364 48.4054 70.8082 48.3017 70.7897 48.2072L68.2198 34.6081C68.1683 34.3357 68.3474 34.0732 68.6198 34.0217C68.8627 33.9758 69.0978 34.1134 69.1823 34.3369Z" fill="#36386C"/>
<path d="M57.4284 39.3245L62.7584 45.7031C63.3724 46.438 63.2745 47.5314 62.5397 48.1453C61.805 48.7593 60.7116 48.6614 60.0976 47.9265C59.9876 47.7949 59.8977 47.6442 59.8329 47.4943L56.5756 39.8467C56.4662 39.5898 56.5857 39.293 56.8425 39.1836C57.0524 39.0942 57.2893 39.1582 57.4284 39.3245Z" fill="#36386C"/>
<path d="M47.4675 47.3134L59.1345 56.4561C59.8827 57.0423 60.0139 58.124 59.4276 58.8721C58.8414 59.6203 57.7597 59.7515 57.0116 59.1652C56.9388 59.1082 56.8655 59.0392 56.8045 58.9735L46.7883 48.0474C46.601 47.843 46.6148 47.5258 46.8191 47.3385C47.0027 47.1702 47.2778 47.1644 47.4675 47.3134Z" fill="#36386C"/>
<path d="M40.0499 57.7047L47.9262 60.3618C48.8335 60.6679 49.3209 61.6515 49.0148 62.5589C48.7087 63.4661 47.7251 63.9535 46.8177 63.6475C46.6553 63.5927 46.4998 63.511 46.3664 63.4169L39.5951 58.5954C39.3678 58.4335 39.3147 58.1179 39.4766 57.8905C39.6089 57.7047 39.8442 57.6356 40.0499 57.7047Z" fill="#36386C"/>
<path d="M35.7602 69.728L50.4467 72.5404C51.3802 72.7191 51.992 73.6207 51.8132 74.5542C51.6345 75.4875 50.7329 76.0993 49.7995 75.9206C49.7095 75.9034 49.6135 75.8758 49.53 75.8458L35.4929 70.6916C35.2328 70.5962 35.0994 70.3078 35.1949 70.0478C35.2808 69.8137 35.523 69.6823 35.7602 69.728Z" fill="#36386C"/>
<path d="M34.0488 80.0496L42.272 78.8345C43.2192 78.6945 44.1006 79.349 44.2405 80.2962C44.3805 81.2435 43.7261 82.1248 42.7788 82.2648C42.6091 82.2899 42.4336 82.2878 42.272 82.2648L34.0488 81.0496C33.7727 81.0089 33.5819 80.7519 33.6227 80.4758C33.6561 80.2502 33.8343 80.0816 34.0488 80.0496Z" fill="#36386C"/>
<path d="M83.2483 143.829L81.4562 160.774C81.3978 161.327 80.9028 161.727 80.3505 161.669C79.8701 161.618 79.5048 161.236 79.4562 160.774L77.6642 143.829C77.5011 142.287 78.6189 140.905 80.1609 140.742C81.703 140.579 83.0852 141.697 83.2483 143.239C83.2689 143.434 83.2669 143.641 83.2483 143.829Z" fill="#36386C"/>
<path d="M113.364 134.573L120.032 150.253C120.249 150.765 120.011 151.355 119.5 151.572C119.055 151.761 118.551 151.605 118.284 151.225L108.484 137.286C107.592 136.017 107.897 134.266 109.166 133.374C110.434 132.483 112.185 132.788 113.077 134.056C113.19 134.217 113.289 134.399 113.364 134.573Z" fill="#36386C"/>
<path d="M134.126 109.551L147.573 120.017C148.012 120.358 148.091 120.989 147.749 121.428C147.453 121.809 146.936 121.918 146.518 121.715L131.179 114.294C129.783 113.619 129.199 111.94 129.875 110.544C130.55 109.148 132.229 108.564 133.625 109.239C133.802 109.325 133.977 109.436 134.126 109.551Z" fill="#36386C"/>
<path d="M94.8742 143.334L93.4258 138.44" stroke="#36386C" stroke-miterlimit="10" stroke-linecap="round"/>
<path d="M122.749 127.014L119.156 123.389" stroke="#36386C" stroke-miterlimit="10" stroke-linecap="round"/>
<path d="M141.123 98.6706L136.328 96.9214" stroke="#36386C" stroke-miterlimit="10" stroke-linecap="round"/>
<path d="M79.9566 129.313L78.7415 121.09C78.6015 120.143 79.2559 119.261 80.2032 119.121C81.1504 118.981 82.0318 119.636 82.1718 120.583C82.1968 120.753 82.1948 120.928 82.1718 121.09L80.9566 129.313C80.9158 129.589 80.6589 129.78 80.3827 129.739C80.1571 129.706 79.9885 129.528 79.9566 129.313Z" fill="#36386C"/>
<path d="M91.7804 127.519L85.6367 114.27C85.2368 113.407 85.6117 112.384 86.474 111.984C87.3363 111.584 88.3596 111.959 88.7595 112.822C88.799 112.907 88.8332 113.003 88.8579 113.091L92.7194 127.175C92.7927 127.442 92.6355 127.718 92.3682 127.791C92.1284 127.857 91.8814 127.737 91.7804 127.519Z" fill="#36386C"/>
<path d="M103.483 122.35L98.1534 115.971C97.5394 115.236 97.6374 114.143 98.3721 113.529C99.1069 112.915 100.2 113.013 100.814 113.748C100.924 113.88 101.014 114.03 101.079 114.18L104.336 121.828C104.446 122.085 104.326 122.381 104.069 122.491C103.86 122.58 103.623 122.516 103.483 122.35Z" fill="#36386C"/>
<path d="M113.457 114.371L100.638 104.82C99.876 104.252 99.7186 103.175 100.286 102.413C100.854 101.651 101.931 101.493 102.693 102.061C102.762 102.112 102.832 102.174 102.89 102.233L114.113 113.617C114.308 113.814 114.306 114.132 114.108 114.326C113.93 114.503 113.652 114.517 113.457 114.371Z" fill="#36386C"/>
<path d="M120.865 103.969L112.989 101.312C112.081 101.006 111.594 100.023 111.9 99.1154C112.206 98.2082 113.19 97.7208 114.097 98.0268C114.26 98.0816 114.415 98.1633 114.548 98.2573L121.32 103.079C121.547 103.241 121.6 103.556 121.438 103.784C121.306 103.97 121.07 104.039 120.865 103.969Z" fill="#36386C"/>
<path d="M125.152 91.946L110.461 89.0745C109.529 88.8922 108.92 87.9882 109.103 87.0555C109.285 86.1229 110.189 85.5145 111.121 85.6968C111.211 85.7143 111.307 85.7421 111.39 85.7724L125.423 90.9833C125.683 91.0798 125.815 91.3685 125.719 91.6282C125.632 91.862 125.389 91.9925 125.152 91.946Z" fill="#36386C"/>
<path d="M52.4249 137.286L42.6249 151.225C42.3055 151.68 41.6782 151.789 41.2239 151.47C40.8288 151.192 40.695 150.681 40.8768 150.254L47.5444 134.573C48.1511 133.146 49.7998 132.481 51.2267 133.087C52.6537 133.694 53.3186 135.343 52.7119 136.77C52.6351 136.95 52.5325 137.131 52.4249 137.286Z" fill="#36386C"/>
<path d="M29.7354 114.294L14.3968 121.715C13.8969 121.957 13.2955 121.748 13.0536 121.248C12.8433 120.813 12.9746 120.302 13.3412 120.017L26.7882 109.551C28.0119 108.599 29.7759 108.819 30.7283 110.042C31.6807 111.266 31.4607 113.03 30.237 113.983C30.0822 114.103 29.9048 114.211 29.7354 114.294Z" fill="#36386C"/>
<path d="M66.0391 143.335L67.4874 138.44" stroke="#36386C" stroke-miterlimit="10" stroke-linecap="round"/>
<path d="M38.1602 127.014L41.7533 123.389" stroke="#36386C" stroke-miterlimit="10" stroke-linecap="round"/>
<path d="M19.793 98.6711L24.5878 96.9219" stroke="#36386C" stroke-miterlimit="10" stroke-linecap="round"/>
<path d="M68.23 127.036L71.4758 114.137C71.708 113.214 72.6439 112.655 73.5664 112.887C74.4888 113.119 75.0485 114.055 74.8164 114.978C74.7911 115.078 74.7532 115.183 74.712 115.274L69.1735 127.368C69.058 127.62 68.76 127.731 68.5079 127.615C68.2842 127.513 68.1719 127.267 68.23 127.036Z" fill="#36386C"/>
<path d="M56.5753 121.828L59.8326 114.18C60.2078 113.299 61.2262 112.889 62.1071 113.265C62.9881 113.64 63.398 114.658 63.0228 115.539C62.9556 115.697 62.8622 115.846 62.7581 115.972L57.4281 122.35C57.2492 122.564 56.9304 122.593 56.7162 122.414C56.5412 122.268 56.4905 122.028 56.5753 121.828Z" fill="#36386C"/>
<path d="M46.7883 113.627L55.4629 103.942C56.0977 103.234 57.1867 103.174 57.8954 103.809C58.6041 104.443 58.664 105.532 58.0292 106.241C57.9583 106.32 57.874 106.397 57.7929 106.46L47.4675 114.361C47.2473 114.529 46.9321 114.487 46.7635 114.267C46.6144 114.072 46.6302 113.803 46.7883 113.627Z" fill="#36386C"/>
<path d="M39.5951 103.079L46.3664 98.2576C47.1463 97.7023 48.2289 97.8843 48.7843 98.6643C49.3397 99.4442 49.1576 100.527 48.3777 101.082C48.2379 101.182 48.0806 101.26 47.9262 101.313L40.0499 103.97C39.7854 104.059 39.4986 103.917 39.4094 103.652C39.3365 103.436 39.4186 103.205 39.5951 103.079Z" fill="#36386C"/>
<path d="M35.5276 90.9744L48.4057 87.1597C49.3177 86.8896 50.276 87.41 50.5461 88.3219C50.8162 89.2338 50.2959 90.1922 49.384 90.4623C49.2855 90.4915 49.177 90.5121 49.0784 90.5234L35.7237 91.955C35.448 91.9845 35.2005 91.7851 35.171 91.5093C35.1447 91.2644 35.2995 91.0418 35.5276 90.9744Z" fill="#36386C"/>
</g>
<defs>
<clipPath id="clip0_0_603">
<rect width="160.911" height="161.675" fill="white"/>
</clipPath>
</defs>
</svg>
