<svg width="163" height="174" viewBox="0 0 163 174" fill="none" xmlns="http://www.w3.org/2000/svg">
<g clip-path="url(#clip0_0_456)">
<path d="M81.4882 0C81.902 1.5492 82.1185 3.0985 82.2655 4.6477C82.4118 6.1969 82.4895 7.7462 82.4879 9.2954C82.4932 10.8447 82.4135 12.3939 82.2685 13.9432C82.122 15.4924 81.9045 17.0417 81.4882 18.5909C81.0719 17.0417 80.8543 15.4924 80.7078 13.9432C80.5628 12.3939 80.4832 10.8447 80.4885 9.2954C80.4869 7.7462 80.5645 6.1969 80.7108 4.6477C80.8579 3.0985 81.0744 1.5492 81.4882 0Z" fill="#C50013"/>
<path d="M107.225 10.0303C107.382 10.8756 107.341 11.6547 107.254 12.4187C107.155 13.1785 106.981 13.9136 106.744 14.6273C106.507 15.3412 106.204 16.0328 105.827 16.6998C105.438 17.363 105.002 18.0102 104.366 18.5909C104.207 17.7449 104.247 16.9652 104.335 16.2017C104.434 15.4419 104.608 14.7068 104.847 13.9939C105.087 13.2809 105.39 12.5891 105.767 11.9221C106.157 11.2593 106.592 10.6116 107.225 10.0303Z" fill="#C50013"/>
<path d="M130.306 22.1514C130.009 23.2392 129.546 24.2012 129.043 25.1345C128.531 26.0601 127.956 26.9386 127.327 27.7766C126.699 28.615 126.014 29.4113 125.268 30.1607C124.511 30.903 123.715 31.6148 122.75 32.2005C123.045 31.1112 123.507 30.1482 124.01 29.2156C124.523 28.2901 125.098 27.4115 125.729 26.5751C126.36 25.7383 127.044 24.9419 127.791 24.1926C128.548 23.4512 129.343 22.7384 130.306 22.1514Z" fill="#C50013"/>
<path d="M148.358 40.9609C147.283 42.2052 146.095 43.2871 144.868 44.3118C143.641 45.336 142.374 46.3035 141.063 47.2058C139.756 48.1139 138.4 48.9521 137.007 49.7364C135.614 50.5193 134.18 51.2439 132.633 51.8048C133.707 50.5585 134.894 49.4757 136.121 48.4515C137.349 47.4285 138.614 46.4593 139.928 45.5599C141.237 44.6549 142.592 43.8152 143.985 43.0319C145.379 42.2493 146.813 41.5238 148.358 40.9609Z" fill="#C50013"/>
<path d="M159.524 64.5215C158.755 65.1773 157.928 65.6322 157.088 66.0411C156.244 66.4376 155.379 66.7589 154.495 67.0156C153.61 67.2728 152.707 67.4626 151.782 67.5775C150.853 67.6809 149.911 67.7358 148.91 67.589C149.678 66.9309 150.505 66.4745 151.345 66.0666C152.189 65.6703 153.055 65.3488 153.939 65.0948C154.824 64.8403 155.728 64.6502 156.653 64.5355C157.582 64.4332 158.524 64.3769 159.524 64.5215Z" fill="#C50013"/>
<path d="M162.446 86.7837C161.168 87.1975 159.89 87.4139 158.612 87.561C157.334 87.7074 156.056 87.785 154.778 87.7833C153.499 87.7887 152.221 87.709 150.943 87.5639C149.665 87.4175 148.387 87.1999 147.109 86.7837C148.387 86.3674 149.665 86.1498 150.943 86.0033C152.221 85.8582 153.499 85.7787 154.778 85.7839C156.056 85.7823 157.334 85.86 158.612 86.0063C159.89 86.1534 161.168 86.3698 162.446 86.7837Z" fill="#C50013"/>
<path d="M55.2228 10.0303C55.8562 10.6116 56.2913 11.2593 56.6809 11.9221C57.0583 12.5891 57.3613 13.2809 57.6008 13.9939C57.8405 14.7068 58.0139 15.4419 58.1132 16.2017C58.2012 16.9652 58.2413 17.7449 58.0822 18.5909C57.4465 18.0102 57.0101 17.363 56.6216 16.6998C56.2443 16.0328 55.9411 15.3412 55.7043 14.6273C55.4671 13.9136 55.2936 13.1785 55.1944 12.4187C55.1075 11.6547 55.066 10.8756 55.2228 10.0303Z" fill="#C50013"/>
<path d="M32.1406 22.1514C33.1033 22.7384 33.8988 23.4512 34.656 24.1926C35.4029 24.9419 36.0871 25.7383 36.7177 26.5751C37.3487 27.4115 37.9236 28.2901 38.4361 29.2156C38.9392 30.1482 39.4019 31.1112 39.6967 32.2005C38.7321 31.6148 37.9355 30.903 37.1792 30.1607C36.4324 29.4113 35.748 28.615 35.1196 27.7766C34.4909 26.9386 33.9158 26.0601 33.4034 25.1345C32.9012 24.2012 32.4374 23.2392 32.1406 22.1514Z" fill="#C50013"/>
<path d="M14.0859 40.9609C15.6312 41.5238 17.0646 42.2493 18.4585 43.0319C19.852 43.8152 21.2065 44.6549 22.516 45.5599C23.8294 46.4593 25.0947 47.4285 26.3228 48.4515C27.55 49.4757 28.7369 50.5585 29.811 51.8048C28.2643 51.2439 26.8304 50.5193 25.4368 49.7364C24.044 48.9521 22.6884 48.1139 21.381 47.2058C20.0696 46.3035 18.8033 45.336 17.5759 44.3118C16.3489 43.2871 15.1614 42.2052 14.0859 40.9609Z" fill="#C50013"/>
<path d="M2.92175 64.5214C3.92195 64.3768 4.86395 64.4331 5.79275 64.5354C6.71795 64.6501 7.62135 64.8402 8.50615 65.0947C9.39105 65.3487 10.2566 65.6702 11.1004 66.0665C11.9408 66.4744 12.7673 66.9308 13.5355 67.5889C12.5347 67.7357 11.5922 67.6808 10.6637 67.5774C9.73855 67.4625 8.83505 67.2727 7.95105 67.0155C7.06685 66.7588 6.20135 66.4375 5.35765 66.041C4.51746 65.6321 3.69055 65.1772 2.92175 64.5214Z" fill="#C50013"/>
<path d="M0 86.7836C1.278 86.3697 2.556 86.1533 3.834 86.0062C5.1121 85.8599 6.3901 85.7822 7.6681 85.7838C8.9461 85.7786 10.2242 85.8581 11.5022 86.0032C12.7802 86.1497 14.0582 86.3673 15.3363 86.7836C14.0582 87.1998 12.7802 87.4174 11.5022 87.5638C10.2242 87.7089 8.9461 87.7886 7.6681 87.7832C6.3901 87.7849 5.1121 87.7073 3.834 87.5609C2.556 87.4138 1.278 87.1974 0 86.7836Z" fill="#C50013"/>
<path d="M81.4882 173.858C81.0744 172.309 80.8579 170.76 80.7108 169.21C80.5645 167.661 80.4869 166.112 80.4885 164.563C80.4832 163.013 80.5628 161.464 80.7078 159.915C80.8543 158.366 81.0719 156.816 81.4882 155.267C81.9045 156.816 82.122 158.366 82.2685 159.915C82.4135 161.464 82.4932 163.013 82.4879 164.563C82.4895 166.112 82.4118 167.661 82.2655 169.21C82.1185 170.76 81.902 172.309 81.4882 173.858Z" fill="#C50013"/>
<path d="M107.225 163.828C106.592 163.246 106.157 162.599 105.767 161.936C105.39 161.269 105.087 160.577 104.847 159.864C104.608 159.151 104.434 158.416 104.335 157.656C104.247 156.893 104.207 156.113 104.366 155.267C105.002 155.848 105.438 156.495 105.827 157.158C106.204 157.825 106.507 158.517 106.744 159.231C106.981 159.945 107.155 160.679 107.254 161.439C107.341 162.203 107.382 162.982 107.225 163.828Z" fill="#C50013"/>
<path d="M130.306 151.707C129.343 151.12 128.548 150.407 127.791 149.665C127.044 148.916 126.36 148.12 125.729 147.283C125.098 146.447 124.523 145.568 124.01 144.642C123.507 143.71 123.045 142.747 122.75 141.658C123.715 142.243 124.511 142.955 125.268 143.697C126.014 144.447 126.699 145.243 127.327 146.081C127.956 146.92 128.531 147.798 129.043 148.724C129.546 149.657 130.009 150.619 130.306 151.707Z" fill="#C50013"/>
<path d="M148.358 132.897C146.813 132.334 145.379 131.608 143.985 130.826C142.592 130.042 141.237 129.203 139.928 128.298C138.614 127.398 137.349 126.429 136.121 125.406C134.894 124.382 133.707 123.299 132.633 122.053C134.18 122.614 135.614 123.338 137.007 124.121C138.4 124.906 139.756 125.744 141.063 126.652C142.374 127.554 143.641 128.522 144.868 129.546C146.095 130.571 147.283 131.652 148.358 132.897Z" fill="#C50013"/>
<path d="M159.524 109.336C158.524 109.481 157.582 109.425 156.653 109.322C155.728 109.208 154.824 109.018 153.939 108.763C153.055 108.509 152.189 108.187 151.345 107.791C150.505 107.383 149.678 106.927 148.91 106.269C149.911 106.122 150.853 106.177 151.782 106.28C152.707 106.395 153.61 106.585 154.495 106.842C155.379 107.099 156.244 107.42 157.088 107.817C157.928 108.226 158.755 108.681 159.524 109.336Z" fill="#C50013"/>
<path d="M55.2228 163.828C55.066 162.982 55.1075 162.203 55.1944 161.439C55.2936 160.679 55.4671 159.945 55.7043 159.231C55.9411 158.517 56.2443 157.825 56.6216 157.158C57.0101 156.495 57.4465 155.848 58.0822 155.267C58.2413 156.113 58.2012 156.893 58.1132 157.656C58.0139 158.416 57.8405 159.151 57.6008 159.864C57.3613 160.577 57.0583 161.269 56.6809 161.936C56.2913 162.599 55.8562 163.246 55.2228 163.828Z" fill="#C50013"/>
<path d="M32.1406 151.707C32.4374 150.619 32.9012 149.657 33.4034 148.724C33.9158 147.798 34.4909 146.92 35.1196 146.081C35.748 145.243 36.4324 144.447 37.1792 143.697C37.9355 142.955 38.7321 142.243 39.6967 141.658C39.4019 142.747 38.9392 143.71 38.4361 144.642C37.9236 145.568 37.3487 146.447 36.7177 147.283C36.0871 148.12 35.4029 148.916 34.656 149.665C33.8988 150.407 33.1033 151.12 32.1406 151.707Z" fill="#C50013"/>
<path d="M14.0859 132.897C15.1614 131.652 16.3489 130.571 17.5759 129.546C18.8033 128.522 20.0696 127.554 21.381 126.652C22.6884 125.744 24.044 124.906 25.4368 124.121C26.8304 123.338 28.2643 122.614 29.811 122.053C28.7369 123.299 27.55 124.382 26.3228 125.406C25.0947 126.429 23.8294 127.398 22.516 128.298C21.2065 129.203 19.852 130.042 18.4585 130.826C17.0646 131.608 15.6312 132.334 14.0859 132.897Z" fill="#C50013"/>
<path d="M2.92175 109.336C3.69055 108.681 4.51746 108.226 5.35765 107.817C6.20135 107.42 7.06685 107.099 7.95105 106.842C8.83505 106.585 9.73855 106.395 10.6637 106.281C11.5922 106.177 12.5347 106.122 13.5355 106.269C12.7673 106.927 11.9408 107.383 11.1004 107.791C10.2566 108.188 9.39105 108.509 8.50615 108.763C7.62135 109.018 6.71795 109.208 5.79275 109.322C4.86395 109.425 3.92195 109.481 2.92175 109.336Z" fill="#C50013"/>
<path d="M81.4919 41.6992C81.8862 42.672 81.9748 43.6448 81.9916 44.6175C81.977 45.5904 81.8883 46.5632 81.4919 47.536C81.0954 46.5632 81.0068 45.5904 80.9922 44.6175C81.009 43.6448 81.0975 42.672 81.4919 41.6992Z" fill="#C50013"/>
<path d="M92.2709 42.998C92.4228 44.0366 92.2778 45.0026 92.063 45.9516C91.8178 46.8931 91.5006 47.817 90.8844 48.6678C90.7304 47.6286 90.8753 46.6627 91.0922 45.7142C91.3397 44.7733 91.6567 43.8493 92.2709 42.998Z" fill="#C50013"/>
<path d="M102.428 46.8193C102.329 47.8644 101.958 48.7683 101.524 49.639C101.063 50.4954 100.535 51.3175 99.7344 51.9976C99.8316 50.9515 100.202 50.0476 100.638 49.1779C101.102 48.3226 101.629 47.5004 102.428 46.8193Z" fill="#C50013"/>
<path d="M111.393 52.9453C111.049 53.9368 110.474 54.7269 109.846 55.4697C109.194 56.1918 108.486 56.8651 107.547 57.3355C107.89 56.3426 108.464 55.5524 109.094 54.8111C109.748 54.0905 110.456 53.4171 111.393 52.9453Z" fill="#C50013"/>
<path d="M118.642 61.0244C118.072 61.9058 117.327 62.5367 116.54 63.109C115.735 63.6555 114.887 64.1415 113.863 64.3754C114.432 63.4922 115.178 62.8611 115.966 62.2906C116.772 61.746 117.62 61.26 118.642 61.0244Z" fill="#C50013"/>
<path d="M123.884 71.6548C123.121 72.3755 122.246 72.8113 121.346 73.1803C120.434 73.52 119.496 73.7907 118.445 73.7746C119.208 73.052 120.082 72.6161 120.983 72.2491C121.896 71.9115 122.834 71.6407 123.884 71.6548Z" fill="#C50013"/>
<path d="M126.474 81.4924C125.561 82.0112 124.608 82.2268 123.646 82.3714C122.68 82.4848 121.704 82.5249 120.688 82.2597C121.6 81.7388 122.552 81.523 123.515 81.3807C124.481 81.2696 125.457 81.2294 126.474 81.4924Z" fill="#C50013"/>
<path d="M70.1799 42.9978C70.794 43.8491 71.1111 44.7731 71.3585 45.714C71.5754 46.6625 71.7204 47.6284 71.5663 48.6676C70.9502 47.8168 70.633 46.8929 70.3877 45.9514C70.173 45.0024 70.0279 44.0364 70.1799 42.9978Z" fill="#C50013"/>
<path d="M60.0195 46.8193C60.8182 47.5004 61.3457 48.3226 61.8095 49.1779C62.2455 50.0476 62.6158 50.9515 62.713 51.9976C61.9123 51.3175 61.3847 50.4954 60.9229 49.639C60.4889 48.7683 60.1185 47.8644 60.0195 46.8193Z" fill="#C50013"/>
<path d="M51.0547 52.9453C51.9923 53.4171 52.7 54.0905 53.3537 54.8111C53.9838 55.5524 54.5582 56.3426 54.9011 57.3355C53.9618 56.8651 53.254 56.1918 52.602 55.4697C51.9736 54.7269 51.3991 53.9368 51.0547 52.9453Z" fill="#C50013"/>
<path d="M43.8047 61.0244C44.8276 61.26 45.675 61.746 46.4811 62.2906C47.2693 62.8611 48.0149 63.4922 48.5838 64.3754C47.5597 64.1415 46.7123 63.6555 45.9074 63.109C45.1205 62.5367 44.3748 61.9058 43.8047 61.0244Z" fill="#C50013"/>
<path d="M38.5625 71.6548C39.6121 71.6407 40.5506 71.9115 41.4632 72.2491C42.3642 72.6161 43.2384 73.052 44.0008 73.7746C42.9505 73.7907 42.0119 73.52 41.1002 73.1803C40.1999 72.8113 39.3257 72.3755 38.5625 71.6548Z" fill="#C50013"/>
<path d="M35.9766 81.4921C36.9928 81.2291 37.9688 81.2693 38.9354 81.3805C39.8978 81.5228 40.8505 81.7386 41.7628 82.2595C40.7463 82.5247 39.7703 82.4846 38.804 82.3712C37.8418 82.2266 36.8891 82.011 35.9766 81.4921Z" fill="#C50013"/>
<path d="M81.4919 132.159C81.0975 131.186 81.009 130.213 80.9922 129.24C81.0068 128.267 81.0954 127.295 81.4919 126.322C81.8883 127.295 81.977 128.267 81.9916 129.24C81.9748 130.213 81.8862 131.186 81.4919 132.159Z" fill="#C50013"/>
<path d="M92.2709 130.86C91.6567 130.009 91.3397 129.085 91.0922 128.144C90.8753 127.196 90.7304 126.23 90.8844 125.19C91.5006 126.041 91.8178 126.965 92.063 127.907C92.2778 128.856 92.4228 129.822 92.2709 130.86Z" fill="#C50013"/>
<path d="M102.428 127.039C101.629 126.358 101.102 125.535 100.638 124.68C100.202 123.81 99.8316 122.906 99.7344 121.86C100.535 122.541 101.063 123.363 101.524 124.219C101.958 125.09 102.329 125.994 102.428 127.039Z" fill="#C50013"/>
<path d="M111.393 120.913C110.456 120.441 109.748 119.768 109.094 119.047C108.464 118.306 107.89 117.515 107.547 116.522C108.486 116.993 109.194 117.666 109.846 118.388C110.474 119.131 111.049 119.921 111.393 120.913Z" fill="#C50013"/>
<path d="M118.642 112.834C117.62 112.598 116.772 112.112 115.966 111.568C115.178 110.997 114.432 110.366 113.863 109.483C114.887 109.717 115.735 110.203 116.54 110.749C117.327 111.322 118.072 111.953 118.642 112.834Z" fill="#C50013"/>
<path d="M123.884 102.203C122.834 102.217 121.896 101.946 120.983 101.609C120.082 101.242 119.208 100.806 118.445 100.083C119.496 100.067 120.434 100.338 121.346 100.677C122.246 101.046 123.121 101.482 123.884 102.203Z" fill="#C50013"/>
<path d="M126.474 92.3659C125.457 92.629 124.481 92.5888 123.515 92.4776C122.552 92.3352 121.6 92.1195 120.688 91.5985C121.704 91.3333 122.68 91.3734 123.646 91.4869C124.608 91.6314 125.561 91.8471 126.474 92.3659Z" fill="#C50013"/>
<path d="M70.1799 130.86C70.0279 129.822 70.173 128.856 70.3877 127.907C70.633 126.965 70.9502 126.041 71.5663 125.19C71.7204 126.23 71.5754 127.196 71.3585 128.144C71.1111 129.085 70.794 130.009 70.1799 130.86Z" fill="#C50013"/>
<path d="M60.0195 127.039C60.1185 125.994 60.4889 125.09 60.9229 124.219C61.3847 123.363 61.9123 122.541 62.713 121.86C62.6158 122.906 62.2455 123.81 61.8095 124.68C61.3457 125.535 60.8182 126.358 60.0195 127.039Z" fill="#C50013"/>
<path d="M51.0547 120.913C51.3991 119.921 51.9736 119.131 52.602 118.388C53.254 117.666 53.9618 116.993 54.9011 116.522C54.5582 117.515 53.9838 118.306 53.3537 119.047C52.7 119.768 51.9923 120.441 51.0547 120.913Z" fill="#C50013"/>
<path d="M43.8047 112.834C44.3748 111.953 45.1205 111.322 45.9074 110.749C46.7123 110.203 47.5597 109.717 48.5838 109.483C48.0149 110.366 47.2693 110.997 46.4811 111.568C45.675 112.112 44.8276 112.598 43.8047 112.834Z" fill="#C50013"/>
<path d="M38.5625 102.203C39.3257 101.482 40.1999 101.046 41.1002 100.677C42.0119 100.338 42.9505 100.067 44.0008 100.083C43.2384 100.806 42.3642 101.242 41.4632 101.609C40.5506 101.946 39.6121 102.217 38.5625 102.203Z" fill="#C50013"/>
<path d="M35.9766 92.3658C36.8891 91.847 37.8418 91.6313 38.804 91.4868C39.7703 91.3733 40.7463 91.3332 41.7628 91.5984C40.8505 92.1194 39.8978 92.3351 38.9354 92.4775C37.9688 92.5887 36.9928 92.6289 35.9766 92.3658Z" fill="#C50013"/>
<path d="M86.1992 27.2476C86.4226 27.9108 86.5158 28.564 86.5631 29.2137C86.6187 29.864 86.5971 30.5083 86.5605 31.1513C86.4992 31.7926 86.4214 32.4326 86.2667 33.0665C86.1203 33.7011 85.927 34.3321 85.6024 34.953C85.3774 34.2896 85.2835 33.6363 85.2366 32.9868C85.1813 32.3365 85.203 31.6922 85.2411 31.0491C85.304 30.4082 85.3819 29.7681 85.5369 29.1342C85.6837 28.4996 85.8763 27.8686 86.1992 27.2476Z" fill="#C50013"/>
<path d="M100.293 30.0638C100.352 30.7611 100.288 31.4177 100.179 32.06C100.079 32.7049 99.9049 33.3257 99.7166 33.9416C99.5048 34.5499 99.2772 35.153 98.9763 35.7321C98.6834 36.3138 98.3457 36.8808 97.883 37.4068C97.822 36.709 97.886 36.0522 97.9946 35.41C98.0955 34.7652 98.2695 34.1445 98.4593 33.529C98.6727 32.9212 98.9003 32.3181 99.2015 31.7391C99.4948 31.1576 99.8318 30.5903 100.293 30.0638Z" fill="#C50013"/>
<path d="M113.316 36.1475C113.208 36.839 112.989 37.4614 112.731 38.0596C112.48 38.6621 112.164 39.2237 111.835 39.7775C111.484 40.318 111.12 40.8498 110.69 41.3409C110.267 41.8363 109.805 42.3069 109.23 42.708C109.337 42.0156 109.555 41.3927 109.813 40.7948C110.064 40.1924 110.381 39.6307 110.711 39.078C111.063 38.5382 111.427 38.0065 111.857 37.5155C112.28 37.0203 112.743 36.5493 113.316 36.1475Z" fill="#C50013"/>
<path d="M124.519 45.1509C124.25 45.797 123.889 46.3496 123.497 46.8695C123.11 47.3952 122.669 47.8656 122.218 48.3252C121.749 48.7671 121.269 49.1972 120.735 49.572C120.207 49.9529 119.645 50.3002 118.992 50.5533C119.26 49.906 119.62 49.3528 120.013 48.8333C120.4 48.3078 120.84 47.8374 121.293 47.3789C121.763 46.9381 122.243 46.5081 122.777 46.1335C123.306 45.7528 123.867 45.4052 124.519 45.1509Z" fill="#C50013"/>
<path d="M133.269 56.5576C132.854 57.1212 132.373 57.5725 131.868 57.9842C131.367 58.403 130.827 58.7552 130.28 59.0945C129.72 59.4124 129.151 59.7162 128.543 59.9535C127.939 60.1978 127.312 60.4018 126.617 60.4925C127.031 59.9275 127.512 59.4756 128.017 59.0642C128.518 58.6457 129.058 58.2934 129.606 57.9557C130.167 57.639 130.736 57.3354 131.344 57.0984C131.948 56.8542 132.575 56.6496 133.269 56.5576Z" fill="#C50013"/>
<path d="M139.099 71.127C138.562 71.576 137.988 71.9001 137.399 72.1801C136.814 72.4681 136.206 72.6819 135.593 72.8814C134.973 73.0572 134.349 73.2171 133.702 73.3033C133.058 73.3973 132.4 73.4463 131.703 73.3694C132.24 72.9189 132.814 72.5942 133.402 72.3144C133.988 72.0268 134.596 71.8129 135.209 71.615C135.829 71.4407 136.454 71.2809 137.101 71.1951C137.745 71.1014 138.403 71.0517 139.099 71.127Z" fill="#C50013"/>
<path d="M141.51 84.378C140.882 84.6866 140.247 84.8648 139.609 84.9971C138.971 85.1378 138.33 85.2011 137.687 85.2493C137.044 85.2729 136.399 85.28 135.75 85.2099C135.102 85.1483 134.451 85.0395 133.793 84.7995C134.421 84.4892 135.056 84.3103 135.694 84.1783C136.331 84.038 136.973 83.9747 137.615 83.9281C138.259 83.9061 138.904 83.8991 139.553 83.9694C140.201 84.0316 140.852 84.1395 141.51 84.378Z" fill="#C50013"/>
<path d="M71.1337 27.8057C71.5083 28.3969 71.7539 29.0092 71.9542 29.6291C72.1627 30.2475 72.2947 30.8785 72.4119 31.5119C72.5047 32.1493 72.5811 32.7895 72.5814 33.4419C72.59 34.0932 72.5521 34.7521 72.3843 35.4323C72.0081 34.8412 71.7617 34.2291 71.5618 33.6092C71.3538 32.9907 71.2217 32.3597 71.1061 31.726C71.0149 31.0883 70.9385 30.4482 70.9385 29.7956C70.9304 29.1443 70.9676 28.4855 71.1337 27.8057Z" fill="#C50013"/>
<path d="M57.3281 31.8115C57.8324 32.2968 58.2164 32.8333 58.5582 33.3878C58.9076 33.9391 59.1857 34.5206 59.4501 35.108C59.6916 35.7052 59.9179 36.3088 60.0732 36.9427C60.2361 37.5732 60.3558 38.2223 60.3544 38.9228C59.8486 38.4381 59.4639 37.9019 59.1225 37.3473C58.7734 36.7959 58.4953 36.2143 58.2324 35.6262C57.9924 35.0284 57.7661 34.4248 57.6111 33.7909C57.4485 33.1601 57.3282 32.5114 57.3281 31.8115Z" fill="#C50013"/>
<path d="M44.8711 38.9819C45.4762 39.3336 45.9768 39.7634 46.4404 40.2209C46.9108 40.6733 47.3191 41.1722 47.7154 41.68C48.0919 42.2027 48.455 42.7353 48.7564 43.3142C49.0645 43.888 49.3349 44.49 49.5 45.1707C48.8935 44.8202 48.3925 44.3906 47.9291 43.933C47.459 43.4803 47.0507 42.9814 46.6557 42.4726C46.2805 41.9489 45.9174 41.4164 45.6162 40.8374C45.3084 40.2633 45.0375 39.6617 44.8711 38.9819Z" fill="#C50013"/>
<path d="M34.4727 48.9062C35.144 49.1041 35.7323 49.4028 36.2914 49.7369C36.8557 50.0648 37.3708 50.4524 37.8764 50.8515C38.3663 51.2699 38.8455 51.701 39.2758 52.1917C39.7114 52.6758 40.117 53.1964 40.4391 53.8186C39.7667 53.6219 39.178 53.3237 38.6191 52.9893C38.055 52.6611 37.5399 52.2735 37.0353 51.8731C36.5465 51.4536 36.0672 51.0224 35.6372 50.5317C35.2018 50.0471 34.7957 49.5271 34.4727 48.9062Z" fill="#C50013"/>
<path d="M26.4688 62.4033C27.1679 62.4361 27.8104 62.5864 28.4327 62.7783C29.0588 62.9627 29.6512 63.2168 30.2372 63.4845C30.8123 63.7744 31.3804 64.0794 31.9149 64.4538C32.453 64.8207 32.9706 65.23 33.4312 65.7578C32.7315 65.7266 32.0888 65.5768 31.4665 65.3847C30.8405 65.1998 30.248 64.9458 29.6628 64.6767C29.0884 64.3853 28.5205 64.0803 27.986 63.7056C27.448 63.3384 26.93 62.9297 26.4688 62.4033Z" fill="#C50013"/>
<path d="M22.0469 75.1256C22.7337 74.9913 23.3935 74.9849 24.0437 75.0233C24.6957 75.0537 25.3315 75.1599 25.9642 75.2808C26.5918 75.4258 27.216 75.587 27.8241 75.8237C28.434 76.0524 29.0341 76.3269 29.6069 76.7302C28.9197 76.8661 28.2597 76.8733 27.6096 76.8345C26.9577 76.8037 26.3219 76.6975 25.6895 76.5752C25.0622 76.4285 24.4381 76.2672 23.83 76.0301C23.2202 75.8013 22.62 75.5273 22.0469 75.1256Z" fill="#C50013"/>
<path d="M76.9485 146.665C76.7252 146.002 76.632 145.349 76.5845 144.699C76.5291 144.049 76.5506 143.405 76.5873 142.762C76.6484 142.12 76.7263 141.48 76.8811 140.846C77.0275 140.212 77.2207 139.581 77.5453 138.96C77.7703 139.623 77.8643 140.277 77.9111 140.926C77.9663 141.577 77.9447 142.221 77.9065 142.864C77.8437 143.505 77.7658 144.145 77.6108 144.779C77.464 145.413 77.2713 146.044 76.9485 146.665Z" fill="#C50013"/>
<path d="M91.3083 146.053C90.9337 145.462 90.6881 144.849 90.4878 144.229C90.2793 143.611 90.1473 142.98 90.03 142.347C89.9372 141.709 89.8608 141.069 89.8605 140.417C89.852 139.765 89.8899 139.106 90.0577 138.426C90.4339 139.017 90.6802 139.629 90.8801 140.249C91.0882 140.868 91.2203 141.499 91.3359 142.132C91.4271 142.77 91.5035 143.41 91.5035 144.063C91.5116 144.714 91.4744 145.373 91.3083 146.053Z" fill="#C50013"/>
<path d="M105.112 142.047C104.608 141.561 104.224 141.025 103.882 140.47C103.533 139.919 103.255 139.338 102.99 138.75C102.749 138.153 102.523 137.549 102.367 136.916C102.204 136.285 102.085 135.636 102.086 134.936C102.592 135.42 102.977 135.956 103.318 136.511C103.667 137.062 103.945 137.644 104.208 138.232C104.448 138.83 104.674 139.433 104.829 140.068C104.992 140.698 105.112 141.347 105.112 142.047Z" fill="#C50013"/>
<path d="M117.574 134.876C116.969 134.525 116.468 134.095 116.005 133.638C115.535 133.185 115.126 132.686 114.73 132.178C114.353 131.656 113.99 131.123 113.689 130.544C113.381 129.97 113.11 129.368 112.945 128.688C113.552 129.038 114.053 129.468 114.516 129.925C114.986 130.378 115.395 130.877 115.79 131.386C116.165 131.909 116.528 132.442 116.829 133.021C117.137 133.595 117.408 134.197 117.574 134.876Z" fill="#C50013"/>
<path d="M127.97 124.952C127.299 124.754 126.711 124.455 126.152 124.121C125.587 123.793 125.072 123.406 124.567 123.007C124.077 122.588 123.597 122.157 123.167 121.667C122.732 121.182 122.326 120.662 122.004 120.04C122.676 120.236 123.265 120.534 123.824 120.869C124.388 121.197 124.903 121.585 125.408 121.985C125.897 122.404 126.376 122.836 126.806 123.327C127.241 123.811 127.647 124.331 127.97 124.952Z" fill="#C50013"/>
<path d="M135.978 111.455C135.279 111.422 134.637 111.271 134.014 111.08C133.388 110.895 132.796 110.641 132.21 110.373C131.635 110.083 131.067 109.778 130.532 109.404C129.994 109.037 129.476 108.628 129.016 108.1C129.716 108.131 130.358 108.281 130.981 108.473C131.606 108.658 132.199 108.912 132.784 109.181C133.359 109.473 133.927 109.778 134.461 110.152C134.999 110.52 135.517 110.928 135.978 111.455Z" fill="#C50013"/>
<path d="M140.396 98.7328C139.709 98.8671 139.049 98.8736 138.399 98.835C137.747 98.8046 137.111 98.6985 136.479 98.5777C135.851 98.4326 135.227 98.2713 134.619 98.0346C134.009 97.8061 133.409 97.5314 132.836 97.1281C133.523 96.9922 134.183 96.985 134.833 97.024C135.485 97.0546 136.121 97.1608 136.753 97.2832C137.381 97.4298 138.005 97.5911 138.613 97.8282C139.223 98.0572 139.823 98.3311 140.396 98.7328Z" fill="#C50013"/>
<path d="M62.1476 143.794C62.0881 143.097 62.1528 142.44 62.2611 141.798C62.3616 141.153 62.5356 140.532 62.7239 139.916C62.9358 139.308 63.1634 138.705 63.4642 138.126C63.7572 137.544 64.0949 136.977 64.5576 136.451C64.6186 137.149 64.5546 137.806 64.4459 138.448C64.3451 139.093 64.1711 139.713 63.9812 140.329C63.7679 140.937 63.5403 141.54 63.2391 142.119C62.9458 142.701 62.6087 143.268 62.1476 143.794Z" fill="#C50013"/>
<path d="M49.125 137.711C49.2329 137.019 49.4517 136.397 49.7095 135.799C49.9602 135.196 50.2767 134.634 50.6059 134.081C50.9562 133.54 51.3206 133.009 51.7504 132.518C52.1731 132.022 52.6358 131.551 53.2102 131.15C53.1037 131.843 52.8855 132.466 52.6275 133.064C52.3764 133.666 52.0599 134.228 51.7293 134.78C51.3776 135.32 51.0133 135.852 50.5832 136.343C50.1601 136.838 49.698 137.309 49.125 137.711Z" fill="#C50013"/>
<path d="M37.9221 128.708C38.1912 128.062 38.5515 127.509 38.944 126.989C39.3307 126.463 39.7716 125.993 40.2229 125.533C40.6915 125.091 41.1718 124.661 41.7059 124.286C42.2343 123.906 42.7955 123.558 43.4487 123.305C43.1808 123.953 42.8209 124.506 42.4282 125.025C42.0412 125.551 41.6004 126.021 41.1479 126.48C40.6781 126.92 40.1979 127.35 39.6635 127.725C39.1349 128.106 38.5742 128.453 37.9221 128.708Z" fill="#C50013"/>
<path d="M29.176 117.301C29.5908 116.737 30.0721 116.286 30.5769 115.874C31.0774 115.455 31.6173 115.103 32.165 114.764C32.7251 114.446 33.2938 114.142 33.9017 113.905C34.5054 113.66 35.133 113.456 35.8276 113.366C35.4137 113.931 34.9327 114.383 34.4278 114.794C33.9271 115.213 33.3871 115.565 32.8387 115.903C32.2777 116.219 31.7091 116.523 31.101 116.76C30.4971 117.004 29.8698 117.209 29.176 117.301Z" fill="#C50013"/>
<path d="M23.3438 102.732C23.8805 102.282 24.4553 101.958 25.0433 101.678C25.629 101.391 26.2372 101.177 26.8497 100.977C27.4694 100.801 28.0939 100.641 28.7407 100.555C29.3852 100.461 30.0433 100.412 30.7397 100.489C30.2032 100.94 29.6287 101.264 29.0405 101.544C28.4548 101.832 27.8467 102.046 27.2337 102.244C26.6135 102.418 25.989 102.578 25.342 102.663C24.6974 102.757 24.0395 102.807 23.3438 102.732Z" fill="#C50013"/>
<path d="M20.9336 89.4804C21.5618 89.1717 22.197 88.9935 22.8348 88.8612C23.4721 88.7205 24.1137 88.6573 24.756 88.609C25.3997 88.5854 26.0443 88.5784 26.6932 88.6484C27.3415 88.7102 27.9925 88.8188 28.6506 89.0589C28.0225 89.3692 27.3873 89.5482 26.7495 89.6801C26.1122 89.8204 25.4706 89.8836 24.8282 89.9302C24.1844 89.9522 23.5398 89.9592 22.8909 89.8889C22.2426 89.8269 21.5916 89.7188 20.9336 89.4804Z" fill="#C50013"/>
</g>
<defs>
<clipPath id="clip0_0_456">
<rect width="162.445" height="173.858" fill="white"/>
</clipPath>
</defs>
</svg>
