<svg width="17" height="16" viewBox="0 0 17 16" fill="none" xmlns="http://www.w3.org/2000/svg">
<path d="M8.38618 16C6.20073 16 5.9431 15.9885 5.09024 15.9512C4.42516 15.9294 3.76869 15.7944 3.14909 15.552C2.07708 15.1354 1.2294 14.2886 0.812613 13.218C0.579237 12.5971 0.453362 11.941 0.440375 11.2779C0.390625 10.428 0.390625 10.1495 0.390625 7.98403C0.390625 5.79552 0.402174 5.54003 0.440375 4.69284C0.453646 4.03062 0.579517 3.37548 0.812613 2.75538C1.22894 1.68333 2.078 0.835815 3.15176 0.420492C3.77243 0.186474 4.42869 0.0604518 5.09201 0.0479042C5.94043 0 6.21939 0 8.38618 0C10.5894 0 10.8426 0.0115325 11.6821 0.0479042C12.3472 0.0605603 13.0052 0.186569 13.6277 0.420492C14.7012 0.836285 15.5501 1.68363 15.9669 2.75538C16.2042 3.38451 16.3307 4.0499 16.3409 4.72211C16.3906 5.57197 16.3906 5.84963 16.3906 8.01419C16.3906 10.1788 16.3782 10.4626 16.3409 11.3027C16.3276 11.9665 16.2015 12.6231 15.9677 13.2446C15.5499 14.316 14.701 15.1631 13.6277 15.5795C13.0061 15.8121 12.3494 15.9378 11.6857 15.9512C10.8373 16 10.5592 16 8.38618 16ZM8.35598 1.4043C6.18296 1.4043 5.95731 1.41495 5.10889 1.45309C4.60249 1.45979 4.10099 1.55311 3.62616 1.72899C2.925 1.9969 2.37017 2.54867 2.09901 3.24773C1.92152 3.72703 1.82806 4.23329 1.82272 4.74429C1.77563 5.6039 1.77563 5.82923 1.77563 7.98403C1.77563 10.1131 1.78363 10.3713 1.82272 11.2255C1.83067 11.7314 1.92408 12.2322 2.09901 12.707C2.37057 13.4056 2.9253 13.957 3.62616 14.2249C4.10067 14.4019 4.60237 14.4953 5.10889 14.5008C5.96886 14.5505 6.1954 14.5505 8.35598 14.5505C10.5352 14.5505 10.7609 14.5398 11.6022 14.5008C12.1089 14.4946 12.6108 14.4013 13.0858 14.2249C13.7827 13.9547 14.3339 13.4046 14.6049 12.7088C14.7821 12.2291 14.8755 11.7226 14.8812 11.2114H14.891C14.9292 10.3633 14.9292 10.1371 14.9292 7.96984C14.9292 5.80262 14.9194 5.57463 14.8812 4.72743C14.8733 4.22218 14.7799 3.7219 14.6049 3.24773C14.3345 2.55096 13.7832 1.99982 13.0858 1.72899C12.6109 1.55222 12.109 1.45888 11.6022 1.45309C10.7431 1.4043 10.5183 1.4043 8.35598 1.4043ZM8.38618 12.0816C6.72487 12.0827 5.22653 11.0843 4.58995 9.55197C3.95336 8.01967 4.30392 6.25534 5.47814 5.0818C6.65235 3.90826 8.41893 3.55668 9.95399 4.19102C11.489 4.82537 12.4902 6.32068 12.4906 7.9796C12.4881 10.2427 10.6525 12.0772 8.38618 12.0816ZM8.38618 5.31648C6.91424 5.31648 5.721 6.508 5.721 7.97782C5.721 9.44764 6.91424 10.6392 8.38618 10.6392C9.85812 10.6392 11.0514 9.44764 11.0514 7.97782C11.0479 6.50942 9.85671 5.31989 8.38618 5.31648ZM12.6505 4.68397C12.1223 4.68201 11.6954 4.25335 11.6963 3.72589C11.6973 3.19843 12.1258 2.77135 12.654 2.77135C13.1823 2.77135 13.6107 3.19842 13.6117 3.72588C13.612 3.98036 13.5107 4.22446 13.3303 4.40424C13.15 4.58402 12.9053 4.68467 12.6505 4.68397Z" fill="#333333"/>
</svg>
