<svg width="145" height="325" viewBox="0 0 145 325" fill="none" xmlns="http://www.w3.org/2000/svg">
<path d="M7.99977 70L8.94971 70.3124L7.99977 70ZM98.9985 131L99.4046 130.086L98.9985 131ZM144.176 322.484C144.719 322.386 145.081 321.866 144.983 321.323L143.387 312.465C143.289 311.922 142.769 311.561 142.225 311.658C141.682 311.756 141.321 312.276 141.418 312.82L142.837 320.693L134.964 322.112C134.42 322.21 134.059 322.73 134.157 323.273C134.255 323.817 134.775 324.178 135.318 324.08L144.176 322.484ZM77.6965 0.546878C45.9394 10.6288 19.662 31.3375 7.04982 69.6876L8.94971 70.3124C21.3316 32.6625 47.0606 12.3712 78.3017 2.45312L77.6965 0.546878ZM7.04982 69.6876C-1.18081 94.7147 -2.10334 117.213 4.98762 135.898C12.0883 154.608 27.1667 169.342 50.6208 178.926L51.3773 177.074C28.3315 167.658 13.7244 153.283 6.85749 135.188C-0.019118 117.068 0.808692 95.067 8.94971 70.3124L7.04982 69.6876ZM50.6208 178.926C74.3022 188.602 94.2274 180.018 104.407 167.22C109.483 160.838 112.178 153.352 111.621 146.529C111.06 139.648 107.194 133.548 99.4046 130.086L98.5923 131.914C105.721 135.082 109.126 140.548 109.628 146.691C110.134 152.892 107.682 159.89 102.842 165.975C93.188 178.112 74.196 186.398 51.3773 177.074L50.6208 178.926ZM99.4046 130.086C88.9339 125.432 74.0846 126.638 60.8735 133.078C47.6288 139.533 35.8642 151.325 31.6543 168.069C27.4425 184.82 30.8382 206.338 47.534 232.16C64.2244 257.974 94.2441 288.155 143.428 322.321L144.569 320.679C95.503 286.595 65.7103 256.589 49.2135 231.074C32.722 205.568 29.5555 184.618 33.5939 168.556C37.6341 152.488 48.9321 141.123 61.7498 134.875C74.601 128.612 88.8138 127.568 98.5923 131.914L99.4046 130.086Z" fill="#F9F3E9"/>
</svg>
