<svg width="19" height="19" viewBox="0 0 19 19" fill="none" xmlns="http://www.w3.org/2000/svg">
<path fill-rule="evenodd" clip-rule="evenodd" d="M0.805306 18.4428L4.26396 17.5355L4.59765 17.7336C6.0007 18.5662 7.60901 19.0067 9.2488 19.0074H9.25251C14.2892 19.0074 18.3886 14.9079 18.3907 9.86904C18.3916 7.42726 17.442 5.13135 15.7167 3.40402C13.9914 1.6767 11.6969 0.724967 9.2561 0.724121C4.21547 0.724121 0.116015 4.8232 0.114014 9.86164C0.113306 11.5884 0.596438 13.27 1.51119 14.7249L1.72847 15.0706L0.805306 18.4428ZM14.4145 12.237C14.6061 12.3296 14.7355 12.3921 14.7908 12.4843C14.8594 12.5989 14.8594 13.1489 14.6306 13.7907C14.4016 14.4324 13.3041 15.0181 12.7762 15.0969C12.303 15.1677 11.704 15.1972 11.0459 14.9881C10.6469 14.8615 10.1353 14.6924 9.47983 14.4094C6.9044 13.2973 5.16394 10.8012 4.835 10.3294C4.81196 10.2964 4.79584 10.2732 4.78685 10.2612L4.78464 10.2583C4.63926 10.0643 3.66511 8.76457 3.66511 7.41939C3.66511 6.15397 4.28671 5.49069 4.57283 5.18539C4.59243 5.16447 4.61046 5.14524 4.6266 5.1276C4.87841 4.85257 5.17605 4.78381 5.35918 4.78381C5.5423 4.78381 5.72564 4.7855 5.8857 4.79354C5.90545 4.79453 5.926 4.79441 5.94723 4.79428C6.10733 4.79335 6.30691 4.79218 6.5038 5.26512C6.57955 5.44713 6.69039 5.71698 6.80729 6.00158C7.04368 6.57708 7.30486 7.21291 7.35081 7.30493C7.4195 7.44245 7.46527 7.60281 7.37371 7.78624C7.35996 7.81374 7.34725 7.8397 7.3351 7.86449C7.26632 8.00491 7.21573 8.1082 7.099 8.24449C7.0531 8.29808 7.00566 8.35586 6.95822 8.41363C6.86371 8.52873 6.7692 8.64382 6.68691 8.7258C6.54938 8.86279 6.40622 9.01142 6.56647 9.28645C6.72672 9.56149 7.27806 10.4611 8.09474 11.1895C8.97264 11.9726 9.73565 12.3035 10.1224 12.4713C10.1979 12.5041 10.2591 12.5306 10.304 12.5531C10.5786 12.6906 10.7389 12.6676 10.8991 12.4843C11.0594 12.301 11.5859 11.6821 11.769 11.4071C11.9521 11.1322 12.1353 11.178 12.3871 11.2696C12.6389 11.3614 13.9896 12.0259 14.2643 12.1634C14.3179 12.1903 14.368 12.2145 14.4145 12.237Z" fill="#333333"/>
</svg>
